<?xml version="1.0" encoding="UTF-8" standalone="no"?>
<svg
   viewBox="0 0 1048576 1048576"
   version="1.1"
   id="svg1"
   width="1048576"
   height="1048576"
   xmlns="http://www.w3.org/2000/svg"
   xmlns:svg="http://www.w3.org/2000/svg">
  <defs
     id="defs1" />
  <path
     fill="#dd2e44"
     d="M 1417.8462,866.4615 A 157.53846,157.53846 0 0 1 1260.3077,1024 H 157.53846 A 157.53846,157.53846 0 0 1 0,866.4615 V 157.53847 A 157.53846,157.53846 0 0 1 157.53846,0 H 1260.3077 a 157.53846,157.53846 0 0 1 157.5385,157.53847 z"/>
  <path
     fill="#eeeeee"
     d="M 21.85846,945.2308 H 1396.0271 a 156.23877,156.23877 0 0 0 21.8191,-78.7693 H 0 c 0,28.8296 8.31016,55.493 21.85846,78.7693 z M 0,708.92309 H 1417.8462 V 787.6923 H 0 Z M 0,551.38462 h 1417.8462 v 78.76922 H 0 Z M 0,393.84616 h 1417.8462 v 78.76922 H 0 Z M 0,236.30769 h 1417.8462 v 78.76924 H 0 Z M 21.85846,78.76922 A 155.76615,155.76615 0 0 0 0,157.53847 h 1417.8462 c 0,-28.82955 -8.3102,-55.53232 -21.8585,-78.76925 z"/>
  <path
     fill="#010066"
     d="M 708.92309,0 H 157.53846 A 157.53846,157.53846 0 0 0 0,157.53847 v 393.84615 h 708.92309 z"/>
  <path
     fill="#ffcc4d"
     d="m 315.07617,39.384766 a 236.3077,236.3077 0 0 0 0,472.615234 234.65354,234.65354 0 0 0 139.85547,-46.1582 205.19385,205.19385 0 0 1 -79.43945,15.95117 206.13908,206.13908 0 0 1 -0.0391,-412.201173 c 28.16001,0 55.02067,5.750552 79.47852,15.951172 A 234.65354,234.65354 0 0 0 315.07617,39.384766 Z m 193.85156,111.417964 -13.15429,63.80469 -39.50196,-51.79101 15.83204,63.17187 -58.0918,-29.49805 41.66797,50.05665 -65.10157,-1.37696 59.27344,27.01758 -59.27344,27.01758 65.10157,-1.37891 -41.66797,50.0586 58.0918,-29.5 -15.83204,63.21289 39.50196,-51.83008 13.15429,63.8418 13.1543,-63.8418 39.50391,51.83008 -15.83399,-63.21289 58.09375,29.5 -41.70898,-50.0586 65.14258,1.37891 -59.27344,-27.01758 59.27344,-27.01758 -65.14258,1.37696 41.70898,-50.05665 -58.09375,29.49805 15.83399,-63.17187 -39.50391,51.79101 z" />
</svg>
