<?xml version="1.0" encoding="UTF-8" standalone="no"?>
<svg
   viewBox="0 0 1048576 1048576"
   version="1.1"
   id="svg1"
   width="1048576"
   height="1048576"
   xmlns="http://www.w3.org/2000/svg"
   xmlns:svg="http://www.w3.org/2000/svg">
  <defs
     id="defs1" />
  <path
     d="m 512,1024 c 70.656,0 137.216,-13.312 198.656,-39.936 C 773.12,957.44 828.416,921.6 874.496,874.496 920.576,829.44 957.44,774.144 984.064,711.68 1010.688,649.216 1024,582.656 1024,512 1024,441.344 1010.688,375.808 984.064,313.344 957.44,250.88 920.576,196.608 874.496,149.504 828.416,104.448 773.12,67.584 710.656,40.96 649.216,13.312 582.656,0 512,0 441.344,0 374.784,13.312 313.344,40.96 250.88,67.584 195.584,104.448 149.504,149.504 103.424,196.608 66.56,250.88 39.936,313.344 13.312,375.808 0,441.344 0,512 c 0,70.656 13.312,137.216 39.936,199.68 26.624,62.464 63.488,117.76 109.568,162.816 46.08,47.104 101.376,82.944 163.84,109.568 61.44,26.624 128,39.936 198.656,39.936 z M 721.92,377.856 c 13.312,18.432 20.48,37.888 23.552,57.344 l 68.608,324.608 c 0,13.312 -5.12,24.576 -15.36,32.768 -11.264,7.168 -24.576,14.336 -39.936,19.456 -15.36,4.096 -30.72,7.168 -48.128,8.192 -17.408,1.024 -31.744,2.048 -44.032,2.048 h -19.456 c -3.072,0 -6.144,0 -7.168,-1.024 -14.336,13.312 -27.648,23.552 -39.936,31.744 -12.288,8.192 -23.552,14.336 -33.792,18.432 -9.216,5.12 -18.432,8.192 -27.648,9.216 -9.216,1.024 -17.408,2.048 -24.576,2.048 h -3.072 c -9.216,0 -20.48,-2.048 -32.768,-5.12 -13.312,-5.12 -23.552,-10.24 -32.768,-15.36 -13.312,-7.168 -23.552,-13.312 -31.744,-19.456 -11.264,-8.192 -18.432,-15.36 -23.552,-21.504 -1.024,1.024 -4.096,1.024 -7.168,1.024 h -20.48 c -13.312,0 -28.672,-1.024 -46.08,-2.048 -17.408,-1.024 -34.816,-3.072 -50.176,-8.192 -15.36,-4.096 -29.696,-10.24 -40.96,-18.432 -11.264,-8.192 -16.384,-19.456 -16.384,-32.768 v -1.024 c 1.024,-11.264 3.072,-21.504 5.12,-30.72 l -9.216,41.984 18.432,-86.016 c 3.072,-15.36 7.168,-32.768 11.264,-51.2 5.12,-26.624 9.216,-45.056 11.264,-54.272 l 28.672,-134.144 2.048,-12.288 c 2.048,-5.12 4.096,-9.216 5.12,-12.288 3.072,-7.168 6.144,-15.36 10.24,-24.576 5.12,-9.216 10.24,-17.408 15.36,-23.552 -11.264,-15.36 -18.432,-25.6 -21.504,-30.72 -9.216,-15.36 -15.36,-27.648 -20.48,-38.912 -7.168,-14.336 -12.288,-28.672 -16.384,-43.008 -4.096,-13.312 -6.144,-26.624 -6.144,-39.936 0,-11.264 2.048,-21.504 5.12,-30.72 3.072,-9.216 9.216,-16.384 17.408,-22.528 11.264,-8.192 22.528,-12.288 34.816,-12.288 15.36,0 30.72,4.096 47.104,13.312 17.408,11.264 33.792,22.528 47.104,35.84 15.36,13.312 28.672,27.648 40.96,41.984 12.288,15.36 21.504,28.672 27.648,37.888 16.384,-3.072 33.792,-4.096 51.2,-4.096 13.312,0 22.528,0 28.672,1.024 9.216,1.024 17.408,2.048 26.624,4.096 4.096,-6.144 13.312,-18.432 27.648,-36.864 10.24,-13.312 23.552,-27.648 39.936,-44.032 14.336,-13.312 29.696,-24.576 47.104,-34.816 17.408,-9.216 33.792,-14.336 49.152,-14.336 7.168,0 13.312,1.024 19.456,4.096 6.144,1.024 12.288,5.12 18.432,10.24 13.312,12.288 20.48,28.672 20.48,49.152 0,12.288 -2.048,26.624 -7.168,43.008 -5.12,14.336 -10.24,28.672 -17.408,44.032 -8.192,15.36 -16.384,29.696 -23.552,41.984 -5.12,9.216 -12.288,19.456 -21.504,30.72 z m -38.912,202.752 c -15.36,-4.096 -30.72,-8.192 -44.032,-13.312 -3.072,-1.024 -20.48,-8.192 -52.224,-21.504 -12.288,-5.12 -30.72,-14.336 -54.272,-25.6 -15.36,-7.168 -32.768,-16.384 -52.224,-27.648 -14.336,-9.216 -27.648,-18.432 -40.96,-27.648 -12.288,-9.216 -21.504,-17.408 -27.648,-26.624 12.288,-5.12 28.672,-9.216 49.152,-13.312 19.456,-3.072 37.888,-5.12 55.296,-5.12 26.624,0 52.224,4.096 76.8,11.264 24.576,7.168 45.056,20.48 60.416,38.912 l -1.024,-1.024 c 0,1.024 5.12,9.216 14.336,25.6 5.12,7.168 11.264,11.264 18.432,11.264 4.096,0 8.192,-1.024 13.312,-4.096 7.168,-5.12 11.264,-11.264 11.264,-19.456 0,-7.168 -3.072,-15.36 -8.192,-22.528 -7.168,-9.216 -13.312,-17.408 -20.48,-24.576 -7.168,-7.168 -15.36,-13.312 -23.552,-19.456 -5.12,-5.12 -10.24,-8.192 -15.36,-11.264 7.168,-5.12 18.432,-13.312 31.744,-24.576 11.264,-10.24 20.48,-20.48 26.624,-29.696 11.264,-15.36 22.528,-34.816 35.84,-57.344 11.264,-19.456 17.408,-40.96 20.48,-64.512 0,-3.072 0,-4.096 1.024,-5.12 v -5.12 c 0,-19.456 -8.192,-29.696 -23.552,-29.696 -5.12,0 -10.24,1.024 -15.36,3.072 -17.408,6.144 -34.816,16.384 -50.176,30.72 -13.312,11.264 -26.624,25.6 -41.984,41.984 -13.312,17.408 -25.6,34.816 -36.864,54.272 -9.216,17.408 -15.36,37.888 -20.48,60.416 -19.456,-2.048 -29.696,-2.048 -29.696,-2.048 h 3.072 c -13.312,-1.024 -24.576,-2.048 -33.792,-2.048 -17.408,0 -34.816,1.024 -50.176,4.096 -2.048,-13.312 -6.144,-27.648 -11.264,-45.056 -5.12,-16.384 -11.264,-30.72 -20.48,-41.984 -3.072,-6.144 -9.216,-14.336 -19.456,-25.6 -8.192,-11.264 -19.456,-22.528 -32.768,-33.792 -11.264,-11.264 -24.576,-21.504 -38.912,-30.72 -13.312,-8.192 -25.6,-12.288 -35.84,-12.288 -9.216,0 -16.384,4.096 -21.504,11.264 -3.072,5.12 -4.096,11.264 -4.096,18.432 0,11.264 2.048,23.552 7.168,38.912 6.144,15.36 11.264,27.648 15.36,34.816 11.264,23.552 23.552,43.008 36.864,60.416 15.36,19.456 33.792,35.84 54.272,47.104 -3.072,1.024 -9.216,4.096 -18.432,10.24 -11.264,5.12 -21.504,12.288 -30.72,20.48 -11.264,9.216 -20.48,17.408 -27.648,26.624 -8.192,9.216 -12.288,18.432 -12.288,26.624 0,7.168 4.096,12.288 12.288,17.408 5.12,3.072 9.216,4.096 11.264,4.096 6.144,0 11.264,-2.048 15.36,-7.168 4.096,-6.144 8.192,-11.264 12.288,-16.384 7.168,-9.216 16.384,-16.384 27.648,-23.552 9.216,-7.168 20.48,-13.312 32.768,-19.456 -2.048,10.24 -6.144,20.48 -11.264,30.72 -5.12,11.264 -11.264,21.504 -17.408,31.744 -4.096,7.168 -10.24,16.384 -19.456,28.672 -6.144,9.216 -12.288,17.408 -17.408,25.6 v 78.848 l -9.216,-3.072 -9.216,-1.024 c -2.048,-1.024 -5.12,-1.024 -9.216,-1.024 -2.048,0 -3.072,0 -4.096,1.024 -3.072,1.024 -6.144,3.072 -9.216,7.168 -3.072,3.072 -4.096,8.192 -4.096,15.36 v 3.072 c 1.024,8.192 3.072,15.36 6.144,20.48 4.096,5.12 8.192,9.216 11.264,11.264 4.096,3.072 8.192,5.12 12.288,5.12 3.072,1.024 6.144,1.024 11.264,1.024 h 3.072 c 2.048,0 4.096,0 5.12,-1.024 8.192,25.6 19.456,47.104 32.768,66.56 13.312,19.456 27.648,34.816 43.008,48.128 15.36,13.312 30.72,23.552 45.056,29.696 15.36,7.168 28.672,10.24 39.936,11.264 h 4.096 c 14.336,0 29.696,-4.096 45.056,-11.264 16.384,-7.168 31.744,-17.408 47.104,-30.72 15.36,-13.312 29.696,-29.696 41.984,-48.128 13.312,-21.504 23.552,-43.008 30.72,-65.536 1.024,1.024 5.12,1.024 10.24,1.024 8.192,0 14.336,-2.048 18.432,-5.12 4.096,-3.072 8.192,-6.144 12.288,-11.264 3.072,-5.12 5.12,-9.216 6.144,-13.312 1.024,-6.144 1.024,-10.24 1.024,-11.264 0,-7.168 -1.024,-12.288 -4.096,-16.384 -3.072,-5.12 -8.192,-8.192 -15.36,-8.192 l -24.576,6.144 z m 11.264,-327.68 c 3.072,0 5.12,1.024 6.144,3.072 1.024,3.072 2.048,6.144 2.048,9.216 0,8.192 -3.072,18.432 -9.216,31.744 -6.144,14.336 -14.336,28.672 -24.576,41.984 -11.264,17.408 -23.552,30.72 -35.84,41.984 -12.288,10.24 -21.504,16.384 -27.648,16.384 -6.144,0 -9.216,-4.096 -9.216,-11.264 0,-8.192 3.072,-19.456 9.216,-30.72 6.144,-14.336 14.336,-29.696 24.576,-44.032 12.288,-18.432 24.576,-31.744 35.84,-41.984 12.288,-11.264 21.504,-16.384 28.672,-16.384 z M 513.024,784.384 c -14.336,0 -25.6,-3.072 -33.792,-8.192 -7.168,-5.12 -11.264,-10.24 -11.264,-16.384 0,-4.096 1.024,-7.168 5.12,-9.216 3.072,-3.072 6.144,-5.12 9.216,-5.12 4.096,0 6.144,1.024 8.192,2.048 1.024,0 2.048,2.048 4.096,3.072 1.024,1.024 3.072,2.048 6.144,4.096 3.072,0 7.168,1.024 12.288,1.024 5.12,0 10.24,-1.024 15.36,-1.024 2.048,-1.024 4.096,-2.048 6.144,-4.096 1.024,-1.024 3.072,-3.072 4.096,-3.072 1.024,-1.024 4.096,-1.024 7.168,-1.024 4.096,0 7.168,1.024 10.24,4.096 3.072,2.048 4.096,5.12 4.096,9.216 0,5.12 -3.072,10.24 -10.24,16.384 -7.168,5.12 -19.456,8.192 -36.864,8.192 z M 458.752,618.496 c 0,9.216 -3.072,17.408 -10.24,24.576 -7.168,7.168 -15.36,11.264 -25.6,11.264 -9.216,0 -17.408,-4.096 -24.576,-11.264 -7.168,-7.168 -11.264,-15.36 -11.264,-24.576 0,-10.24 4.096,-18.432 11.264,-24.576 7.168,-7.168 15.36,-11.264 24.576,-11.264 10.24,0 18.432,4.096 25.6,11.264 7.168,6.144 10.24,14.336 10.24,24.576 z m 182.272,0 c 0,9.216 -4.096,17.408 -11.264,24.576 -6.144,7.168 -14.336,11.264 -24.576,11.264 -10.24,0 -18.432,-4.096 -25.6,-11.264 -6.144,-7.168 -9.216,-15.36 -9.216,-24.576 0,-10.24 3.072,-18.432 9.216,-24.576 7.168,-7.168 15.36,-11.264 25.6,-11.264 10.24,0 18.432,4.096 24.576,11.264 7.168,6.144 11.264,14.336 11.264,24.576 z M 337.92,252.928 c 7.168,0 16.384,5.12 29.696,16.384 11.264,9.216 23.552,23.552 35.84,41.984 9.216,14.336 17.408,29.696 23.552,44.032 6.144,11.264 9.216,22.528 9.216,30.72 0,7.168 -3.072,11.264 -8.192,11.264 -6.144,0 -15.36,-6.144 -28.672,-16.384 -12.288,-11.264 -24.576,-24.576 -35.84,-41.984 -9.216,-13.312 -18.432,-27.648 -24.576,-41.984 -6.144,-13.312 -9.216,-23.552 -9.216,-31.744 0,-4.096 1.024,-6.144 2.048,-8.192 2.048,-3.072 4.096,-4.096 6.144,-4.096 z"
     fill="#000000"
     id="path1-1"
     style="stroke-width:1.024" />
</svg>
