<?xml version="1.0" encoding="UTF-8" standalone="no"?>
<svg
   viewBox="0 0 1048576 1048576"
   version="1.1"
   id="svg1"
   width="1048576"
   height="1048576"
   xmlns="http://www.w3.org/2000/svg"
   xmlns:svg="http://www.w3.org/2000/svg">
  <defs
     id="defs1" />
  <path
     d="m 512,1024 c 70.656,0 137.216,-13.312 198.656,-39.936 C 773.12,957.44 828.416,921.6 874.496,874.496 920.576,829.44 957.44,774.144 984.064,711.68 1010.688,649.216 1024,582.656 1024,512 1024,441.344 1010.688,375.808 984.064,313.344 957.44,250.88 920.576,196.608 874.496,149.504 828.416,104.448 773.12,67.584 710.656,40.96 649.216,13.312 582.656,0 512,0 441.344,0 374.784,13.312 313.344,40.96 250.88,67.584 195.584,104.448 149.504,149.504 103.424,196.608 66.56,250.88 39.936,313.344 13.312,375.808 0,441.344 0,512 c 0,70.656 13.312,137.216 39.936,199.68 26.624,62.464 63.488,117.76 109.568,162.816 46.08,47.104 101.376,82.944 163.84,109.568 61.44,26.624 128,39.936 198.656,39.936 z m 67.584,-525.312 c -5.12,0 -10.24,-1.024 -13.312,-3.072 -3.072,-3.072 -5.12,-6.144 -5.12,-10.24 0,-5.12 2.048,-8.192 5.12,-10.24 4.096,-3.072 8.192,-4.096 13.312,-4.096 h 69.632 c 11.264,0 17.408,5.12 17.408,14.336 0,9.216 -6.144,13.312 -17.408,13.312 z M 437.248,471.04 c 5.12,0 9.216,1.024 12.288,3.072 3.072,2.048 5.12,5.12 5.12,10.24 0,5.12 -2.048,9.216 -5.12,11.264 -3.072,2.048 -7.168,3.072 -12.288,3.072 h -70.656 c -7.168,0 -12.288,-1.024 -13.312,-3.072 -3.072,-1.024 -5.12,-4.096 -5.12,-9.216 0,-4.096 2.048,-8.192 5.12,-11.264 3.072,-3.072 8.192,-4.096 13.312,-4.096 z m 117.76,260.096 c 3.072,0 6.144,1.024 8.192,3.072 3.072,3.072 4.096,5.12 4.096,8.192 0,3.072 -1.024,6.144 -4.096,8.192 -2.048,2.048 -5.12,3.072 -8.192,3.072 H 460.8 c -3.072,0 -6.144,-1.024 -8.192,-3.072 -3.072,-2.048 -4.096,-5.12 -4.096,-8.192 0,-7.168 4.096,-11.264 12.288,-11.264 z m 94.208,-176.128 c 0,9.216 -3.072,18.432 -10.24,25.6 -7.168,7.168 -15.36,10.24 -24.576,10.24 -10.24,0 -18.432,-3.072 -25.6,-10.24 -6.144,-7.168 -9.216,-16.384 -9.216,-25.6 0,-9.216 3.072,-17.408 10.24,-24.576 6.144,-7.168 14.336,-10.24 24.576,-10.24 9.216,0 17.408,3.072 24.576,10.24 7.168,7.168 10.24,15.36 10.24,24.576 z m -211.968,0 c 0,9.216 -3.072,18.432 -10.24,25.6 -7.168,7.168 -15.36,10.24 -24.576,10.24 -10.24,0 -18.432,-3.072 -25.6,-10.24 -7.168,-7.168 -10.24,-16.384 -10.24,-25.6 0,-9.216 3.072,-17.408 10.24,-24.576 7.168,-7.168 15.36,-10.24 25.6,-10.24 9.216,0 17.408,3.072 24.576,10.24 7.168,7.168 10.24,15.36 10.24,24.576 z M 556.032,384 c 32.768,-10.24 57.344,-17.408 73.728,-21.504 35.84,-9.216 59.392,-14.336 72.704,-17.408 22.528,-5.12 45.056,-9.216 66.56,-13.312 22.528,-3.072 41.984,-6.144 59.392,-8.192 1.024,7.168 2.048,14.336 2.048,21.504 0,11.264 -1.024,21.504 -4.096,32.768 -1.024,5.12 -6.144,21.504 -14.336,47.104 -3.072,12.288 -8.192,26.624 -15.36,41.984 -2.048,5.12 -5.12,13.312 -8.192,22.528 -4.096,9.216 -7.168,15.36 -9.216,20.48 l 5.12,2.048 c 1.024,1.024 3.072,2.048 5.12,4.096 3.072,2.048 5.12,4.096 8.192,7.168 13.312,13.312 20.48,31.744 20.48,55.296 v 4.096 c -1.024,11.264 -3.072,21.504 -6.144,32.768 -3.072,9.216 -8.192,18.432 -16.384,28.672 -7.168,8.192 -13.312,15.36 -20.48,20.48 -7.168,5.12 -16.384,8.192 -25.6,11.264 -3.072,13.312 -7.168,27.648 -13.312,41.984 -4.096,13.312 -10.24,24.576 -17.408,33.792 -8.192,11.264 -19.456,24.576 -34.816,38.912 -16.384,13.312 -34.816,27.648 -54.272,40.96 -19.456,12.288 -39.936,22.528 -62.464,31.744 -20.48,9.216 -39.936,14.336 -59.392,14.336 -19.456,0 -38.912,-5.12 -60.416,-14.336 -21.504,-9.216 -41.984,-20.48 -61.44,-33.792 -19.456,-13.312 -37.888,-27.648 -53.248,-40.96 -16.384,-14.336 -28.672,-26.624 -35.84,-36.864 -7.168,-9.216 -13.312,-20.48 -18.432,-33.792 -5.12,-13.312 -9.216,-27.648 -11.264,-41.984 -9.216,-3.072 -18.432,-6.144 -26.624,-11.264 -7.168,-5.12 -14.336,-12.288 -21.504,-20.48 -7.168,-9.216 -11.264,-18.432 -14.336,-28.672 -4.096,-11.264 -6.144,-21.504 -7.168,-32.768 v -4.096 c 0,-11.264 2.048,-21.504 5.12,-30.72 4.096,-10.24 9.216,-18.432 15.36,-24.576 3.072,-4.096 6.144,-6.144 7.168,-7.168 2.048,-3.072 4.096,-4.096 7.168,-4.096 l 4.096,-2.048 -18.432,-43.008 c -5.12,-12.288 -9.216,-26.624 -14.336,-41.984 -7.168,-21.504 -11.264,-36.864 -14.336,-48.128 -1.024,-3.072 -2.048,-8.192 -3.072,-15.36 v -16.384 c 0,-31.744 10.24,-60.416 29.696,-83.968 21.504,-25.6 47.104,-46.08 78.848,-63.488 31.744,-16.384 65.536,-29.696 103.424,-38.912 37.888,-9.216 73.728,-13.312 109.568,-13.312 27.648,0 58.368,3.072 91.136,10.24 30.72,6.144 60.416,15.36 90.112,27.648 27.648,11.264 53.248,25.6 76.8,45.056 23.552,17.408 39.936,37.888 51.2,61.44 -18.432,2.048 -44.032,6.144 -77.824,12.288 -28.672,5.12 -58.368,11.264 -90.112,18.432 -37.888,9.216 -69.632,18.432 -95.232,27.648 -26.624,8.192 -57.344,19.456 -92.16,32.768 -32.768,13.312 -61.44,26.624 -84.992,39.936 -25.6,13.312 -48.128,28.672 -69.632,45.056 v 96.256 l -32.768,-16.384 c -1.024,-1.024 -3.072,-1.024 -6.144,-2.048 -3.072,-1.024 -6.144,-2.048 -10.24,-2.048 -5.12,0 -11.264,2.048 -16.384,7.168 -5.12,6.144 -8.192,17.408 -9.216,32.768 3.072,13.312 5.12,23.552 8.192,30.72 4.096,7.168 8.192,13.312 12.288,17.408 3.072,3.072 8.192,6.144 13.312,9.216 5.12,1.024 9.216,2.048 13.312,2.048 4.096,0 7.168,0 9.216,-1.024 2.048,0 4.096,0 7.168,-1.024 l 5.12,-1.024 v 24.576 c 1.024,10.24 3.072,21.504 7.168,33.792 4.096,9.216 9.216,19.456 15.36,30.72 6.144,12.288 15.36,22.528 27.648,31.744 9.216,7.168 22.528,18.432 39.936,31.744 13.312,10.24 26.624,19.456 40.96,27.648 10.24,6.144 23.552,12.288 39.936,18.432 13.312,4.096 24.576,6.144 35.84,6.144 14.336,0 29.696,-4.096 47.104,-11.264 17.408,-7.168 33.792,-15.36 49.152,-25.6 18.432,-11.264 33.792,-22.528 46.08,-33.792 15.36,-13.312 25.6,-24.576 31.744,-31.744 7.168,-7.168 12.288,-14.336 15.36,-22.528 5.12,-10.24 8.192,-18.432 10.24,-25.6 2.048,-7.168 3.072,-12.288 4.096,-14.336 1.024,-6.144 2.048,-11.264 3.072,-15.36 V 637.952 L 732.16,640 c 1.024,1.024 2.048,1.024 4.096,1.024 4.096,0 8.192,-1.024 12.288,-3.072 5.12,-2.048 9.216,-5.12 14.336,-9.216 5.12,-5.12 9.216,-11.264 12.288,-18.432 4.096,-8.192 7.168,-17.408 8.192,-28.672 v -3.072 c 0,-1.024 0,-5.12 -1.024,-11.264 -1.024,-5.12 -3.072,-9.216 -4.096,-12.288 -3.072,-4.096 -5.12,-7.168 -8.192,-10.24 -3.072,-2.048 -7.168,-3.072 -11.264,-3.072 -5.12,0 -10.24,1.024 -17.408,4.096 l -32.768,16.384 v -92.16 C 680.96,447.488 652.288,429.056 624.64,415.744 599.04,403.456 575.488,393.216 556.032,384 Z"
     fill="#000000"
     id="path1"
     style="stroke-width:1.024" />
</svg>
