<?xml version="1.0" encoding="UTF-8" standalone="no"?>
<svg
   viewBox="0 0 1048576 1048576"
   version="1.1"
   id="svg1"
   width="1048576"
   height="1048576"
   xmlns="http://www.w3.org/2000/svg"
   xmlns:svg="http://www.w3.org/2000/svg">
  <defs
     id="defs1" />
  <path
     d="M 873.78509,150.21487 C 774.34708,49.719006 653.75204,-8.0000007e-7 511.99998,-8.0000007e-7 370.24792,-8.0000007e-7 249.65288,49.719006 149.15702,150.21487 49.719007,249.65288 2e-7,370.24792 2e-7,511.99998 2e-7,653.75204 49.719007,774.34708 149.15702,874.84294 249.65288,974.28095 371.30577,1024 511.99998,1024 653.75204,1024 774.34708,974.28095 873.78509,874.84294 974.28096,774.34708 1024,653.75204 1024,511.99998 1024,370.24792 974.28096,249.65288 873.78509,150.21487 Z M 321.58677,302.54544 v -58.18181 c 1.05785,-22.21488 8.4628,-42.31405 23.27272,-58.18182 16.92562,-14.80992 35.96694,-22.21487 58.18182,-23.27273 H 613.5537 c 22.21487,1.05786 42.31404,8.46281 59.23966,23.27273 14.80992,15.86777 22.21488,35.96694 22.21488,58.18182 v 58.18181 h 41.2562 c 20.09917,0 35.96694,6.34711 49.719,20.09918 l 76.16529,76.16528 c 13.75206,13.75207 20.09917,29.61984 20.09917,49.71901 V 559.60328 H 695.00824 v -23.27272 c 0,-13.75207 -4.23141,-24.33058 -12.69422,-33.85124 -9.52066,-9.52066 -20.09917,-13.75207 -32.79338,-13.75207 -13.75207,0 -24.33058,4.23141 -33.85124,13.75207 -9.52066,9.52066 -13.75207,21.15702 -13.75207,33.85124 v 23.27272 H 415.73552 v -23.27272 c 0,-13.75207 -4.2314,-24.33058 -13.75206,-33.85124 -9.52066,-9.52066 -20.09918,-13.75207 -33.85124,-13.75207 -13.75207,0 -25.38843,4.23141 -32.79339,13.75207 -9.52066,9.52066 -13.75206,21.15702 -13.75206,33.85124 v 23.27272 H 135.40495 V 448.52891 c 0,-20.09917 6.34711,-35.96694 20.09918,-49.71901 l 76.16528,-76.16528 c 13.75207,-13.75207 29.61984,-20.09918 49.71901,-20.09918 z M 135.40495,722.51237 V 606.14874 h 186.18182 v 22.21487 c 0,13.75207 4.2314,25.38843 13.75206,33.85124 9.52066,9.52066 20.09917,13.75207 32.79339,13.75207 13.75206,0 24.33058,-4.23141 33.85124,-13.75207 9.52066,-9.52066 13.75206,-20.09917 13.75206,-33.85124 v -22.21487 h 186.18181 v 22.21487 c 0,13.75207 4.23141,25.38843 13.75207,33.85124 9.52066,9.52066 20.09917,13.75207 33.85124,13.75207 13.75206,0 24.33057,-4.23141 32.79338,-13.75207 8.46281,-9.52066 12.69422,-20.09917 12.69422,-33.85124 V 606.14874 H 882.2479 v 116.36363 c -1.05785,25.38843 -9.52066,47.6033 -27.50413,65.58677 -17.98347,17.98347 -39.14049,26.44628 -65.58677,27.50413 H 228.49586 c -26.44628,-1.05785 -47.6033,-9.52066 -65.58678,-27.50413 C 144.92561,770.11567 136.4628,747.9008 135.40495,722.51237 Z M 392.4628,244.36363 v 58.18181 h 232.72726 v -58.18181 c -1.05785,-7.40496 -4.23141,-11.63637 -11.63636,-12.69422 H 403.04131 c -6.34711,1.05785 -9.52066,5.28926 -10.57851,12.69422 z"
     fill="#000000"
     id="path1-34"
     style="stroke-width:1.05785" />
</svg>
