<?xml version="1.0" encoding="UTF-8" standalone="no"?>
<svg
   viewBox="0 0 1048576 1048576"
   version="1.1"
   id="svg1"
   width="1048576"
   height="1048576"
   xmlns="http://www.w3.org/2000/svg"
   xmlns:svg="http://www.w3.org/2000/svg">
  <defs
     id="defs1" />
  <path
     d="M 149.0031,150.21488 C 49.6677,249.65289 0,370.24793 0,512 0,653.75207 49.6677,774.34711 150.05986,873.78512 249.39525,974.281 369.8658,1024 511.4716,1024 654.1342,1024 774.6047,974.281 873.9401,873.78512 974.3323,774.34711 1024,653.75207 1024,512 1024,370.24793 974.3323,249.65289 873.9401,149.15702 774.6047,49.71901 654.1342,0 511.4716,0 369.8658,0 249.39525,49.71901 149.0031,150.21488 Z m 803.1373,498.24793 c 1.0567,1.05785 1.0567,2.1157 1.0567,4.2314 0,0 0,2.11571 0,4.23141 0,1.05785 0,3.17355 0,4.2314 0,1.05786 0,3.17356 -1.0567,4.23141 -1.0568,1.05785 -1.0568,2.1157 -2.1136,4.2314 -1.0567,0 -2.1135,1.05786 -3.1702,2.11571 -1.0568,1.05785 -2.1136,1.05785 -2.1136,2.1157 -2.1135,1.05785 -3.1702,1.05785 -4.227,2.1157 -1.0568,1.05785 -3.1703,1.05785 -4.227,2.1157 -1.0568,0 -3.1703,0 -4.2271,0 -1.0567,0 -3.1703,0 -4.227,0 -1.0568,-1.05785 -3.1703,-1.05785 -4.2271,-2.1157 -1.0567,-1.05785 -2.1135,-1.05785 -4.227,-2.1157 0,-1.05785 -1.0568,-1.05785 -2.1135,-2.1157 -1.0568,-1.05785 -2.1135,-2.11571 -3.1703,-2.11571 -1.0568,-2.1157 -1.0568,-3.17355 -2.1135,-4.2314 -1.0568,-1.05785 -1.0568,-3.17355 -1.0568,-4.23141 0,-1.05785 0,-3.17355 0,-4.2314 0,-2.1157 0,-4.23141 0,-4.23141 0,-2.1157 0,-3.17355 1.0568,-4.2314 1.0567,-1.05785 1.0567,-2.1157 2.1135,-4.23141 1.0568,0 2.1135,-2.1157 3.1703,-3.17355 1.0567,-1.05785 2.1135,-1.05785 2.1135,-2.1157 2.1135,-1.05785 3.1703,-1.05785 4.227,-2.1157 1.0568,-1.05785 3.1703,-1.05785 4.2271,-1.05785 1.0567,-1.05786 3.1703,-1.05786 4.227,-1.05786 1.0568,0 3.1703,0 4.2271,1.05786 1.0567,0 3.1702,0 4.227,1.05785 1.0568,1.05785 2.1135,1.05785 4.227,2.1157 0,1.05785 1.0568,1.05785 2.1136,2.1157 1.0567,1.05785 2.1135,3.17355 3.1702,3.17355 1.0568,2.11571 1.0568,3.17356 2.1136,4.23141 z m -4.2271,14.80992 c 1.0568,-1.05785 1.0568,-2.11571 1.0568,-2.11571 1.0567,-2.1157 1.0567,-3.17355 1.0567,-4.2314 0,-1.05785 0,-2.1157 -1.0567,-4.23141 0,0 0,-2.1157 -1.0568,-3.17355 0,-1.05785 0,-2.1157 -1.0567,-3.17355 -1.0568,-1.05785 -1.0568,-1.05785 -2.1136,-2.11571 -1.0567,-1.05785 -2.1135,-2.1157 -2.1135,-3.17355 C 940.516,640 940.516,640 939.4592,640 c -1.0567,-1.05785 -3.1702,-1.05785 -4.227,-1.05785 -1.0568,0 -2.1135,0 -3.1703,0 -1.0567,0 -2.1135,0 -4.227,0 0,0 -2.1135,0 -3.1703,1.05785 -1.0568,0 -1.0568,0 -3.1703,1.05785 0,1.05785 -1.0567,2.1157 -2.1135,3.17355 -1.0568,1.05786 -1.0568,1.05786 -2.1135,2.11571 -1.0568,1.05785 -1.0568,2.1157 -2.1135,3.17355 -1.0568,1.05785 -1.0568,3.17355 -1.0568,3.17355 0,2.11571 0,3.17356 0,4.23141 0,1.05785 0,2.1157 0,4.2314 0,0 0,1.05786 1.0568,2.11571 1.0567,1.05785 1.0567,2.1157 2.1135,3.17355 1.0567,1.05785 1.0567,2.1157 2.1135,3.17355 1.0568,1.05786 2.1135,1.05786 2.1135,2.11571 2.1135,1.05785 2.1135,1.05785 3.1703,1.05785 1.0568,1.05785 3.1703,1.05785 3.1703,1.05785 2.1135,1.05785 3.1703,1.05785 4.227,1.05785 1.0568,0 2.1135,0 4.2271,-1.05785 0,0 2.1135,0 3.1702,-1.05785 1.0568,0 1.0568,0 3.1703,-1.05785 0,-1.05785 1.0568,-1.05785 2.1135,-2.11571 1.0568,-1.05785 1.0568,-2.1157 2.1136,-3.17355 1.0567,-1.05785 1.0567,-2.1157 1.0567,-3.17355 z m -11.6243,-4.23141 6.3405,9.52066 h -5.2838 l -6.3405,-9.52066 h -3.1703 v 9.52066 h -4.2271 V 644.2314 h 9.5109 c 1.0567,0 3.1703,0 3.1703,0 2.1135,1.05786 2.1135,1.05786 3.1702,2.11571 1.0568,1.05785 1.0568,1.05785 1.0568,2.1157 1.0568,1.05785 1.0568,2.1157 1.0568,3.17355 0,1.05785 0,1.05785 -1.0568,3.17356 0,0 0,1.05785 0,2.1157 -1.0568,0 -1.0568,0 -2.1135,0 -1.0568,1.05785 -1.0568,1.05785 -2.1135,2.1157 z M 795.7399,563.83471 v 21.15703 h -175.422 l 1.0567,2.1157 c 1.0568,6.34711 4.2271,12.69421 7.3973,16.92562 3.1703,6.34711 8.4541,10.57851 13.7379,13.75206 5.2838,4.23141 10.5676,7.40496 16.9082,9.52067 7.3973,1.05785 14.7946,2.1157 23.2487,2.1157 13.7378,0 25.3622,-3.17356 34.873,-8.46281 9.5109,-5.28926 16.9082,-10.57851 22.192,-15.86777 l 42.2704,31.73554 c -5.2838,5.28925 -10.5676,10.57851 -16.9082,15.86776 -6.3405,5.28926 -13.7379,9.52067 -21.1352,13.75207 -8.4541,4.23141 -17.9649,7.40496 -27.4757,10.57851 -10.5676,3.17356 -22.192,4.23141 -33.8163,4.23141 -9.5109,0 -17.9649,-1.05785 -25.3623,-3.17356 -7.3973,-1.05785 -15.8514,-3.17355 -23.2487,-6.3471 -7.3973,-3.17356 -13.7378,-6.34711 -20.0784,-10.57852 -6.3406,-4.2314 -11.6244,-9.52066 -16.9082,-14.80991 -5.2838,-5.28926 -9.5108,-10.57851 -13.7378,-16.92562 -4.2271,-5.28926 -7.3973,-11.63637 -10.5676,-19.04132 -3.1703,-7.40496 -5.2838,-14.80992 -6.3406,-22.21488 -1.0567,-7.40496 -2.1135,-15.86777 -2.1135,-23.27273 0,-8.46281 1.0568,-15.86777 2.1135,-24.33058 2.1135,-6.3471 4.2271,-13.75206 7.3973,-21.15702 3.1703,-7.40496 6.3406,-13.75207 10.5676,-20.09917 4.2271,-6.34711 8.4541,-11.63637 13.7379,-16.92562 5.2838,-5.28926 10.5676,-9.52067 16.9082,-13.75207 6.3405,-4.23141 12.6811,-7.40496 20.0784,-10.57851 7.3973,-3.17356 14.7946,-5.28926 22.1919,-6.34711 7.3974,-2.1157 15.8514,-3.17355 23.2487,-3.17355 8.4541,0 16.9082,1.05785 24.3055,2.1157 7.3973,1.05785 14.7947,3.17355 22.192,6.34711 7.3973,3.17355 13.7378,6.3471 19.0216,10.57851 6.3406,4.2314 12.6812,9.52066 17.965,14.80992 5.2837,5.28925 9.5108,10.57851 13.7378,16.92562 3.1703,6.3471 6.3406,12.69421 9.5109,19.04132 3.1702,7.40496 5.2838,15.86777 6.3405,22.21487 1.0568,8.46281 2.1135,15.86777 2.1135,23.27273 z M 98.27864,353.32231 h 61.29205 v 62.41323 H 98.27864 Z M 927.8349,654.80992 h 5.2838 c 1.0567,0 1.0567,0 1.0567,0 1.0568,0 1.0568,0 1.0568,-1.05785 h 1.0568 l 1.0567,-1.05786 v -3.17355 l -1.0567,-1.05785 h -1.0568 c 0,-1.05785 0,-1.05785 -1.0568,-1.05785 0,0 0,0 -1.0567,0 h -5.2838 z M 620.3179,543.73554 h 119.4138 c 0,-8.46281 -5.2838,-17.98347 -14.7947,-28.56199 -9.5108,-11.63636 -25.3622,-16.92562 -45.4406,-16.92562 -20.0784,0 -34.8731,5.28926 -44.3839,16.92562 -9.5108,11.63637 -14.7946,21.15703 -14.7946,28.56199 z M 389.9443,474.97521 c 8.454,8.46281 14.7946,19.04132 17.9649,31.73553 4.227,12.69422 6.3405,26.44628 6.3405,42.31405 V 675.96694 H 355.0712 V 557.4876 c 0,-9.52066 -1.0568,-16.92562 -3.1703,-24.33058 -2.1135,-7.40495 -5.2838,-13.75206 -9.5108,-19.04132 -4.227,-5.28925 -9.5108,-8.46281 -16.9082,-11.63636 -6.3405,-2.1157 -13.7378,-3.17355 -22.1919,-3.17355 -7.3973,0 -13.7379,1.05785 -20.0784,3.17355 -6.3406,3.17355 -11.6244,7.40496 -16.90819,12.69421 -5.2838,5.28926 -8.45408,11.63637 -10.5676,19.04133 -3.17028,7.40495 -4.22704,16.92562 -5.2838,27.50413 V 675.96694 H 192.33024 V 452.76033 h 58.12177 v 31.73554 l 3.17028,-3.17356 c 4.22704,-5.28925 8.45408,-10.57851 13.73788,-14.80991 5.28379,-3.17356 10.56759,-6.34711 15.85143,-9.52066 5.2838,-3.17356 11.6243,-5.28926 17.9649,-6.34711 6.3405,-1.05785 12.6811,-2.1157 20.0784,-2.1157 14.7946,0 27.4758,2.1157 40.1569,6.3471 10.5676,4.23141 21.1352,10.57852 28.5325,20.09918 z M 884.5077,675.96694 H 825.3292 V 348.03306 h 59.1785 z m -336.0495,2.1157 h -8.4541 c -8.454,0 -16.9081,0 -24.3054,-1.05785 -7.3974,-1.05785 -14.7947,-2.1157 -20.0785,-3.17355 -5.2838,-2.1157 -10.5676,-4.23141 -15.8514,-6.34711 -5.2838,-3.17355 -9.5108,-6.34711 -12.6811,-9.52066 -3.1703,-4.2314 -6.3405,-8.46281 -9.5108,-13.75207 -3.1703,-5.28925 -5.2838,-10.57851 -6.3406,-15.86776 -1.0567,-6.34711 -2.1135,-13.75207 -3.1703,-21.15703 -1.0567,-7.40496 -1.0567,-15.86777 -1.0567,-25.38843 V 366.01653 h 58.1218 v 86.7438 h 43.3271 v 50.77686 h -43.3271 v 78.28099 c 0,4.23141 0,8.46281 0,11.63637 1.0567,3.17355 1.0567,6.3471 1.0567,9.52066 1.0568,3.17355 1.0568,5.28925 3.1703,7.40496 0,2.1157 2.1135,4.2314 3.1703,6.3471 2.1135,1.05785 4.227,2.11571 6.3405,4.23141 2.1136,0 5.2838,1.05785 8.4541,1.05785 2.1135,1.05785 5.2838,1.05785 8.4541,1.05785 3.1703,1.05785 7.3973,1.05785 12.6811,1.05785 z m -389.94427,-2.1157 H 99.3354 V 452.76033 h 59.17853 z"
     fill="#000000"
     id="path1-27"
     style="stroke-width:1.05731" />
</svg>
