<?xml version="1.0" encoding="UTF-8" standalone="no"?>
<svg
   viewBox="0 0 1048576 1048576"
   version="1.1"
   id="svg1"
   width="1048576"
   height="1048576"
   xmlns="http://www.w3.org/2000/svg"
   xmlns:svg="http://www.w3.org/2000/svg">
  <defs
     id="defs1" />
  <path
     d="M 149.00309,150.21487 C 49.667697,249.65288 0,370.24792 0,511.99998 0,653.75204 49.667697,774.34708 150.05985,873.78509 249.39524,974.28095 369.86583,1024 511.4716,1024 654.13413,1024 774.60471,974.28095 873.94011,873.78509 974.33226,774.34708 1024,653.75204 1024,511.99998 1024,370.24792 974.33226,249.65288 873.94011,149.15702 774.60471,49.719006 654.13413,-8.0000007e-7 511.4716,-8.0000007e-7 369.86583,-8.0000007e-7 249.39524,49.719006 149.00309,150.21487 Z M 384.66046,461.22312 H 179.64912 c -24.30547,-3.17355 -36.98659,-15.86777 -39.10011,-38.08264 V 217.91735 c 1.05676,-17.98347 8.45408,-29.61984 24.30547,-35.96694 5.2838,-2.11571 10.5676,-3.17356 15.85139,-3.17356 9.51084,0 17.96492,3.17356 25.36223,10.57851 l 67.63261,67.70248 c 47.55418,-47.6033 101.44891,-78.28099 162.74096,-93.0909 30.64603,-7.40496 60.2353,-10.57852 90.88132,-10.57852 29.58927,0 60.23529,3.17356 89.82456,10.57852 60.23529,15.86776 115.18678,46.54545 162.74096,94.14875 47.55418,47.60331 78.2002,101.55372 94.0516,162.90909 7.39731,30.67768 11.62435,61.35537 11.62435,92.03305 0,30.67769 -4.22704,60.29752 -11.62435,90.9752 -15.8514,60.29752 -46.49742,115.30579 -94.0516,162.90909 -47.55418,47.6033 -101.44891,78.28099 -162.74096,94.14876 -30.64603,7.40495 -60.23529,11.63636 -90.88132,11.63636 -30.64602,0 -61.29205,-4.23141 -91.93808,-11.63636 -60.23529,-15.86777 -114.13002,-46.54546 -162.74096,-94.14876 -9.51083,-10.57851 -14.79463,-22.21488 -14.79463,-33.85124 v -2.1157 c 0,-13.75207 5.2838,-26.44628 14.79463,-37.02479 9.51084,-9.52066 22.19195,-14.80992 35.92982,-14.80992 13.73788,0 26.41899,5.28926 36.98659,14.80992 53.89473,50.77685 114.13002,76.16528 181.76263,76.16528 66.57585,0 126.81114,-25.38843 180.70588,-76.16528 49.66769,-51.83471 75.02992,-112.13223 75.02992,-180.89256 0,-69.81818 -25.36223,-130.1157 -75.02992,-181.95041 -53.89474,-50.77685 -113.07327,-76.16528 -179.64912,-76.16528 -68.68937,0 -128.92466,24.33058 -181.76263,74.04958 l 66.57585,65.58678 c 7.39731,8.46281 10.56759,16.92562 10.56759,26.44628 0,5.28925 -1.05676,10.57851 -3.17028,15.86776 -6.34056,14.80992 -17.96491,23.27273 -34.87306,24.33058 z"
     fill="#000000"
     id="path1-16"
     style="stroke-width:1.05731" />
</svg>
