<?xml version="1.0" encoding="UTF-8" standalone="no"?>
<svg
   viewBox="0 0 1048576 1048576"
   version="1.1"
   id="svg1"
   width="1048576"
   height="1048576"
   xmlns="http://www.w3.org/2000/svg"
   xmlns:svg="http://www.w3.org/2000/svg">
  <defs
     id="defs1" />
  <path
     d="M 149.15702,150.21488 C 49.71901,249.65289 0,370.24793 0,512 0,653.75207 49.71901,774.34711 150.21488,873.78512 249.6529,974.281 370.2479,1024 512,1024 654.8099,1024 775.405,974.281 874.843,873.78512 975.3388,774.34711 1025.0579,653.75207 1025.0579,512 1025.0579,370.24793 975.3388,249.65289 874.843,149.15702 775.405,49.71901 654.8099,0 512,0 370.2479,0 249.6529,49.71901 149.15702,150.21488 Z m 254.94218,55.00826 v 53.95041 h 75.1074 v -53.95041 c 2.1157,-20.09917 12.6942,-30.67769 32.7934,-32.79339 20.0992,2.1157 30.6777,12.69422 32.7934,32.79339 v 53.95041 h 75.1074 v -53.95041 c 2.1157,-20.09917 12.6942,-30.67769 31.7356,-32.79339 20.0991,2.1157 30.6776,12.69422 32.7934,32.79339 v 53.95041 c 23.2727,1.05785 43.3719,9.52066 61.3553,25.38843 15.8678,15.86777 24.3306,35.96695 25.3885,60.29752 h 53.9504 c 20.0991,2.11571 30.6777,12.69422 32.7934,32.79339 -2.1157,20.09918 -12.6943,30.67769 -32.7934,32.79339 h -53.9504 v 75.10744 h 53.9504 c 20.0991,2.1157 30.6777,12.69421 32.7934,32.79339 -2.1157,20.09917 -12.6943,30.67768 -32.7934,32.79339 h -53.9504 v 75.10743 h 53.9504 c 20.0991,2.11571 30.6777,12.69422 32.7934,31.73554 -2.1157,20.09917 -12.6943,30.67769 -32.7934,32.79339 h -53.9504 c -1.0579,24.33058 -9.5207,45.4876 -25.3885,61.35537 C 727.8017,768 707.7025,776.46281 684.4298,777.52066 v 53.95041 c -2.1158,20.09918 -12.6943,30.67769 -32.7934,32.79339 -19.0414,-2.1157 -29.6199,-12.69421 -31.7356,-32.79339 v -53.95041 h -75.1074 v 53.95041 c -2.1157,20.09918 -12.6942,30.67769 -32.7934,32.79339 -20.0992,-2.1157 -30.6777,-12.69421 -32.7934,-32.79339 v -53.95041 h -75.1074 v 53.95041 c -2.1157,20.09918 -12.6942,30.67769 -32.7934,32.79339 -20.0992,-2.1157 -30.6777,-12.69421 -32.7934,-32.79339 V 777.52066 C 315.2397,776.46281 295.1405,768 278.2149,752.13223 262.3471,736.26446 253.8843,715.10744 252.8264,690.77686 h -53.95037 c -20.09917,-2.1157 -30.67768,-12.69422 -32.79339,-32.79339 2.11571,-19.04132 12.69422,-29.61983 32.79339,-31.73554 H 252.8264 V 551.1405 h -53.95037 c -20.09917,-2.11571 -30.67768,-12.69422 -32.79339,-32.79339 2.11571,-20.09918 12.69422,-30.67769 32.79339,-32.79339 h 53.95037 v -75.10744 h -53.95037 c -20.09917,-2.1157 -30.67768,-12.69421 -32.79339,-32.79339 2.11571,-20.09917 12.69422,-30.67768 32.79339,-32.79339 h 53.95037 c 1.0579,-24.33057 9.5207,-44.42975 25.3885,-60.29752 16.9256,-15.86777 37.0248,-24.33058 60.2975,-25.38843 v -53.95041 c 2.1157,-20.09917 12.6942,-30.67769 32.7934,-32.79339 20.0992,2.1157 30.6777,12.69422 32.7934,32.79339 z M 381.8843,344.8595 c -11.6364,0 -22.2149,4.23141 -30.6777,12.69422 -8.4628,8.46281 -12.6942,19.04132 -12.6942,31.73554 v 258.1157 c 0,11.63636 4.2314,22.21487 12.6942,30.67768 7.405,8.46281 17.9835,12.69422 30.6777,12.69422 h 260.2314 c 11.6364,0 22.2149,-4.23141 29.6198,-12.69422 8.4628,-7.40495 12.6943,-17.98347 12.6943,-30.67768 v -258.1157 c 0,-11.63637 -4.2315,-22.21488 -12.6943,-31.73554 -7.4049,-8.46281 -16.9256,-12.69422 -29.6198,-12.69422 z m 285.6198,67.70248 c -1.0578,13.75207 -5.2892,26.44628 -14.8099,35.96695 -9.5206,9.52066 -22.2149,14.80991 -37.0248,14.80991 -13.752,0 -26.4463,-5.28925 -37.0248,-14.80991 -9.5206,-9.52067 -13.752,-22.21488 -14.8099,-35.96695 1.0579,-13.75206 5.2893,-26.44628 14.8099,-37.02479 9.5207,-9.52066 22.2149,-13.75207 37.0248,-14.80992 13.7521,1.05785 26.4463,5.28926 37.0248,14.80992 9.5207,9.52066 13.7521,22.21488 14.8099,37.02479 z"
     fill="#000000"
     id="path1-7"
     style="stroke-width:1.05785" />
  <path
     d="M 1024,512 C 1022.976,416.768 1000.448,330.752 954.368,253.952 908.288,176.128 846.848,114.688 770.048,69.632 693.248,23.552 607.232,1.024 512,0 416.768,1.024 330.752,23.552 253.952,69.632 176.128,115.712 114.688,177.152 69.632,253.952 23.552,330.752 1.024,416.768 0,512 c 1.024,95.232 23.552,181.248 69.632,258.048 46.08,77.824 107.52,139.264 184.32,184.32 76.8,46.08 162.816,68.608 258.048,69.632 95.232,-1.024 181.248,-23.552 258.048,-69.632 77.824,-46.08 139.264,-107.52 184.32,-184.32 46.08,-76.8 68.608,-162.816 69.632,-258.048 z M 698.368,491.52 c 0,41.984 -10.24,79.872 -29.696,113.664 l 88.064,88.064 c 10.24,13.312 15.36,26.624 15.36,40.96 0,12.288 -5.12,25.6 -15.36,38.912 -13.312,10.24 -25.6,16.384 -38.912,16.384 -13.312,0 -25.6,-6.144 -38.912,-16.384 L 588.8,684.032 c -33.792,20.48 -70.656,30.72 -112.64,30.72 C 413.696,713.728 361.472,691.2 318.464,649.216 275.456,607.232 253.952,555.008 252.928,491.52 c 1.024,-63.488 22.528,-116.736 65.536,-158.72 40.96,-40.96 93.184,-62.464 157.696,-63.488 64.512,1.024 116.736,22.528 158.72,63.488 40.96,41.984 62.464,94.208 63.488,158.72 z M 476.16,603.136 c 30.72,-2.048 57.344,-12.288 78.848,-31.744 20.48,-23.552 30.72,-50.176 31.744,-79.872 -1.024,-30.72 -12.288,-57.344 -31.744,-78.848 -22.528,-21.504 -48.128,-32.768 -78.848,-32.768 -30.72,0 -57.344,11.264 -79.872,32.768 -20.48,21.504 -30.72,48.128 -31.744,78.848 1.024,31.744 11.264,58.368 31.744,79.872 23.552,20.48 50.176,30.72 79.872,31.744 z"
     fill="#000000"
     id="path1-1"
     style="display:none;stroke-width:1.024" />
  <path
     d="M 1024,512 C 1022.976,416.768 1000.448,330.752 954.368,253.952 908.288,176.128 846.848,114.688 770.048,69.632 693.248,23.552 607.232,1.024 512,0 416.768,1.024 330.752,23.552 253.952,69.632 176.128,115.712 114.688,177.152 69.632,253.952 23.552,330.752 1.024,416.768 0,512 c 1.024,95.232 23.552,181.248 69.632,258.048 46.08,77.824 107.52,139.264 184.32,184.32 76.8,46.08 162.816,68.608 258.048,69.632 95.232,-1.024 181.248,-23.552 258.048,-69.632 77.824,-46.08 139.264,-107.52 184.32,-184.32 46.08,-76.8 68.608,-162.816 69.632,-258.048 z M 444.416,327.68 c 0,-11.264 4.096,-21.504 12.288,-28.672 7.168,-7.168 17.408,-11.264 28.672,-11.264 h 286.72 c 11.264,0 21.504,4.096 29.696,11.264 7.168,8.192 11.264,18.432 11.264,28.672 0,12.288 -4.096,21.504 -11.264,29.696 -8.192,8.192 -18.432,12.288 -29.696,12.288 h -286.72 c -12.288,0 -21.504,-4.096 -28.672,-12.288 -8.192,-8.192 -12.288,-17.408 -12.288,-29.696 z m -71.68,-73.728 c 7.168,8.192 10.24,15.36 10.24,23.552 0,7.168 -2.048,13.312 -7.168,20.48 l -92.16,102.4 c -5.12,7.168 -13.312,10.24 -22.528,10.24 -9.216,0 -16.384,-3.072 -22.528,-9.216 l -51.2,-51.2 c -6.144,-7.168 -9.216,-14.336 -9.216,-21.504 0,-7.168 3.072,-15.36 9.216,-22.528 7.168,-6.144 14.336,-8.192 21.504,-8.192 7.168,0 15.36,2.048 22.528,8.192 l 27.648,28.672 70.656,-77.824 c 7.168,-7.168 15.36,-10.24 22.528,-10.24 7.168,0 13.312,2.048 20.48,7.168 z M 329.728,532.48 c -2.048,16.384 -7.168,30.72 -18.432,41.984 -12.288,12.288 -26.624,17.408 -43.008,18.432 -16.384,-1.024 -30.72,-7.168 -41.984,-18.432 -12.288,-12.288 -18.432,-25.6 -18.432,-41.984 1.024,-17.408 7.168,-31.744 18.432,-43.008 11.264,-12.288 25.6,-17.408 41.984,-18.432 17.408,1.024 31.744,7.168 43.008,18.432 11.264,12.288 17.408,26.624 18.432,43.008 z m -61.44,262.144 c -16.384,0 -30.72,-6.144 -41.984,-17.408 -12.288,-12.288 -18.432,-26.624 -18.432,-43.008 1.024,-17.408 7.168,-31.744 18.432,-43.008 11.264,-11.264 25.6,-16.384 41.984,-17.408 17.408,1.024 31.744,6.144 43.008,17.408 11.264,13.312 17.408,27.648 18.432,43.008 -2.048,18.432 -7.168,31.744 -18.432,43.008 -11.264,11.264 -25.6,17.408 -43.008,17.408 z M 430.08,693.248 h 364.544 c 11.264,0 20.48,4.096 28.672,12.288 7.168,7.168 11.264,17.408 11.264,28.672 0,11.264 -4.096,20.48 -11.264,28.672 -7.168,8.192 -16.384,11.264 -28.672,11.264 H 430.08 c -11.264,0 -21.504,-3.072 -28.672,-11.264 -8.192,-7.168 -11.264,-16.384 -11.264,-28.672 0,-11.264 3.072,-20.48 11.264,-28.672 7.168,-8.192 17.408,-12.288 28.672,-12.288 z m 0,-201.728 h 364.544 c 11.264,0 20.48,4.096 28.672,11.264 7.168,8.192 11.264,17.408 11.264,29.696 0,11.264 -4.096,20.48 -11.264,28.672 -7.168,8.192 -16.384,11.264 -28.672,11.264 H 430.08 c -11.264,0 -21.504,-3.072 -28.672,-11.264 -8.192,-8.192 -11.264,-17.408 -11.264,-28.672 0,-12.288 3.072,-21.504 11.264,-29.696 7.168,-7.168 17.408,-11.264 28.672,-11.264 z"
     fill="#000000"
     id="path1-5"
     style="display:none;stroke-width:1.024" />
  <path
     d="M 1024,512 C 1022.976,416.768 1000.448,330.752 954.368,253.952 908.288,176.128 846.848,114.688 770.048,69.632 693.248,23.552 607.232,1.024 512,0 416.768,1.024 330.752,23.552 253.952,69.632 176.128,115.712 114.688,177.152 69.632,253.952 23.552,330.752 1.024,416.768 0,512 c 1.024,95.232 23.552,181.248 69.632,258.048 46.08,77.824 107.52,139.264 184.32,184.32 76.8,46.08 162.816,68.608 258.048,69.632 95.232,-1.024 181.248,-23.552 258.048,-69.632 77.824,-46.08 139.264,-107.52 184.32,-184.32 46.08,-76.8 68.608,-162.816 69.632,-258.048 z m -748.544,83.968 h 125.952 l 56.32,56.32 c 16.384,16.384 34.816,24.576 56.32,24.576 20.48,0 38.912,-8.192 56.32,-24.576 l 57.344,-56.32 H 752.64 c 22.528,1.024 40.96,9.216 56.32,24.576 14.336,15.36 22.528,33.792 23.552,56.32 v 38.912 c -1.024,22.528 -9.216,40.96 -23.552,56.32 -15.36,15.36 -33.792,23.552 -56.32,23.552 H 275.456 c -22.528,0 -40.96,-8.192 -56.32,-23.552 -15.36,-15.36 -22.528,-33.792 -23.552,-56.32 v -38.912 c 0,-21.504 8.192,-40.96 23.552,-56.32 15.36,-15.36 33.792,-23.552 56.32,-24.576 z m 457.728,130.048 c 18.432,-1.024 27.648,-11.264 29.696,-29.696 -2.048,-18.432 -11.264,-28.672 -29.696,-29.696 -18.432,1.024 -28.672,11.264 -29.696,29.696 1.024,18.432 11.264,28.672 29.696,29.696 z M 552.96,198.656 v 302.08 L 644.096,409.6 c 8.192,-8.192 18.432,-12.288 28.672,-12.288 11.264,0 20.48,4.096 28.672,12.288 7.168,8.192 11.264,17.408 11.264,27.648 0,9.216 -4.096,19.456 -11.264,28.672 L 542.72,624.64 c -8.192,8.192 -17.408,12.288 -28.672,12.288 -11.264,0 -20.48,-4.096 -28.672,-12.288 L 325.632,465.92 c -7.168,-8.192 -10.24,-18.432 -10.24,-28.672 0,-10.24 3.072,-19.456 10.24,-27.648 8.192,-8.192 18.432,-12.288 28.672,-12.288 11.264,0 21.504,4.096 28.672,12.288 l 91.136,91.136 v -302.08 c 0,-10.24 4.096,-19.456 11.264,-28.672 7.168,-7.168 17.408,-11.264 28.672,-11.264 11.264,0 20.48,4.096 28.672,11.264 7.168,8.192 10.24,18.432 10.24,28.672 z"
     fill="#000000"
     id="path1-8"
     style="display:none;stroke-width:1.024" />
  <path
     fill="currentColor"
     d="m 512,0 c 282.8,0 512,229.2 512,512 0,282.8 -229.2,512 -512,512 C 229.2,1024 0,794.8 0,512 0,229.2 229.2,0 512,0 Z M 201.4,489.4 c -12.4,12.4 -12.4,32.8 0,45.2 l 192,192 c 9.2,9.2 23,11.8 34.8,7 C 440,728.8 448,717 448,704 V 320 c 0,-13 -7.8,-24.6 -19.8,-29.6 -12,-5 -25.8,-2.2 -34.8,7 z m 621.2,45.2 c 12.4,-12.4 12.4,-32.8 0,-45.2 l -192,-192 c -9.2,-9.2 -23,-11.8 -34.8,-7 C 584,295.2 576,307 576,320 v 384 c 0,13 7.8,24.6 19.8,29.6 12,5 25.8,2.2 34.8,-7 z"
     id="path1"
     style="display:none" />
</svg>
