<?xml version="1.0" encoding="UTF-8" standalone="no"?>
<svg
   viewBox="0 0 1048576 1048576"
   version="1.1"
   id="svg1"
   width="1048576"
   height="1048576"
   xmlns="http://www.w3.org/2000/svg"
   xmlns:svg="http://www.w3.org/2000/svg">
  <defs
     id="defs1" />
  <path
     d="M 149.00306,150.21488 C 49.667698,249.65289 0,370.24793 0,512 0,653.75207 49.667698,774.3471 150.05987,873.7851 249.39525,974.281 369.86579,1024 511.4716,1024 654.13411,1024 774.60475,974.281 873.94013,873.7851 974.33221,774.3471 1024,653.75207 1024,512 1024,370.24793 974.33221,249.65289 873.94013,149.15702 774.60475,49.71901 654.13411,0 511.4716,0 369.86579,0 249.39525,49.71901 149.00306,150.21488 Z m 607.63675,181.95041 c 10.56758,0 21.13517,1.05785 31.70275,4.2314 9.51087,3.17356 17.96494,8.46281 26.41901,13.75207 9.51087,7.40496 15.85142,14.80992 19.02164,22.21488 4.22704,10.57851 6.34055,21.15702 6.34055,30.67768 V 679.1405 c 0,9.52066 -2.11351,19.04132 -6.34055,30.67768 -5.28374,9.52066 -11.62429,19.04132 -19.02164,26.44628 -7.39736,7.40496 -15.85143,12.69422 -26.41901,16.92562 -11.62429,4.23141 -22.19197,6.34711 -31.70275,6.34711 H 274.75745 c -9.51078,0 -20.07846,-2.1157 -31.70275,-6.34711 -9.51088,-4.2314 -19.02165,-9.52066 -26.41901,-16.92562 -7.39736,-7.40496 -13.7379,-16.92562 -19.02165,-26.44628 -4.22703,-11.63636 -6.34055,-21.15702 -6.34055,-30.67768 V 413.61983 c 0,-9.52066 2.11352,-20.09917 6.34055,-31.73553 4.22704,-9.52066 10.56759,-17.98347 19.02165,-25.38843 7.39736,-7.40496 16.90813,-13.75207 26.41901,-17.98347 11.62429,-4.23141 22.19197,-6.34711 31.70275,-6.34711 h 106.73273 l 13.73791,-37.02479 c 3.17022,-7.40496 6.34055,-12.69422 9.51077,-17.98348 3.17033,-5.28925 8.45407,-9.52066 15.85143,-13.75206 5.28374,-5.28926 11.62439,-8.46281 16.90813,-10.57851 8.45406,-3.17356 14.79461,-4.23141 20.07845,-4.23141 H 575.9339 c 5.28384,0 11.62439,1.05785 19.02165,4.23141 7.39736,3.17355 12.6812,6.3471 17.96494,9.52066 5.28384,4.2314 10.56758,9.52066 13.73791,14.80991 4.22703,5.28926 7.39725,11.63637 9.51077,17.98348 l 12.6812,37.02479 z M 516.75544,684.42975 c 17.96484,0 34.87297,-3.17355 48.61088,-10.57851 14.79461,-5.28926 28.53252,-14.80992 40.15691,-26.44628 10.56758,-10.57851 19.02165,-24.33058 26.41891,-40.19835 6.34055,-14.80992 9.51087,-30.67768 9.51087,-48.66116 0,-16.92562 -3.17032,-32.79338 -9.51087,-48.66115 -7.39726,-15.86777 -15.85133,-28.56199 -26.41891,-40.19835 -11.62439,-11.63636 -25.3623,-20.09917 -40.15691,-27.50413 -15.85143,-6.34711 -31.70275,-9.52066 -48.61088,-9.52066 -17.96494,0 -33.81637,3.17355 -49.66779,9.52066 -15.85132,7.40496 -28.53242,15.86777 -39.10001,27.50413 -11.62439,11.63636 -20.07845,24.33058 -26.419,40.19835 -7.39736,13.75206 -10.56759,30.67768 -10.56759,48.66115 0,19.04133 3.17023,34.9091 10.56759,48.66116 6.34055,15.86777 14.79461,29.61984 26.419,40.19835 10.56759,11.63636 23.24869,20.09917 39.10001,26.44628 13.73791,7.40496 30.64604,10.57851 49.66779,10.57851 z M 288.49535,464.39669 c 7.39726,0 12.6811,-1.05785 15.85143,-3.17355 4.22703,-2.1157 8.45406,-5.28926 12.6811,-9.52066 3.17022,-3.17355 6.34055,-7.40496 8.45406,-12.69422 2.11352,-3.17355 3.17023,-8.46281 3.17023,-14.80991 0,-6.34711 -1.05671,-11.63637 -3.17023,-14.80992 -2.11351,-5.28926 -5.28384,-9.52066 -8.45406,-13.75207 l -12.6811,-7.40496 c -3.17033,-2.1157 -8.45417,-3.17355 -15.85143,-3.17355 -7.39735,0 -12.6811,1.05785 -15.85142,3.17355 l -12.6811,7.40496 c -3.17022,4.23141 -6.34055,8.46281 -8.45407,13.75207 -2.11351,3.17355 -3.17032,8.46281 -3.17032,14.80992 0,6.3471 1.05681,11.63636 3.17032,14.80991 2.11352,5.28926 5.28385,9.52067 8.45407,12.69422 5.28384,5.28926 9.51088,8.46281 12.6811,9.52066 3.17032,2.1157 8.45407,3.17355 15.85142,3.17355 z m 228.26009,13.75207 c 9.51077,0 19.02165,2.1157 30.64594,6.34711 11.62439,6.34711 20.07845,11.63636 25.36229,16.92562 7.39726,7.40496 13.73781,16.92562 16.90814,26.44628 4.22703,11.63636 6.34055,22.21487 6.34055,30.67768 0,9.52067 -2.11352,20.09918 -6.34055,31.73554 -4.22704,9.52066 -9.51088,17.98347 -16.90814,25.38843 -7.39735,7.40496 -15.85142,12.69422 -25.36229,17.98347 C 535.77709,637.8843 526.26621,640 516.75544,640 c -9.51088,0 -20.07846,-2.1157 -31.70285,-6.34711 -8.45407,-3.17355 -16.90813,-9.52066 -25.3622,-17.98347 -9.51087,-8.46281 -14.79461,-16.92562 -17.96494,-25.38843 -4.22703,-11.63636 -6.34055,-22.21487 -6.34055,-31.73554 0,-8.46281 2.11352,-19.04132 6.34055,-30.67768 4.22703,-9.52066 10.56758,-19.04132 17.96494,-26.44628 7.39726,-7.40496 15.85143,-12.69422 25.3622,-16.92562 11.62439,-4.23141 22.19197,-6.34711 31.70285,-6.34711 z"
     fill="#000000"
     id="path1-2"
     style="stroke-width:1.0573" />
</svg>
