<?xml version="1.0" encoding="UTF-8" standalone="no"?>
<svg
   viewBox="0 0 1048576 1048576"
   version="1.1"
   id="svg1"
   width="1048576"
   height="1048576"
   xmlns="http://www.w3.org/2000/svg"
   xmlns:svg="http://www.w3.org/2000/svg">
  <defs
     id="defs1" />
  <path
     d="M 149.0031,150.21488 C 49.6677,249.65289 0,370.24793 0,512 0,653.75207 49.6677,774.34711 150.0599,873.78512 249.3953,974.28099 369.8658,1024 511.4716,1024 654.1342,1024 774.6047,974.28099 873.9401,873.78512 974.3323,774.34711 1024,653.75207 1024,512 1024,370.24793 974.3323,249.65289 873.9401,149.15702 774.6047,49.719008 654.1342,0 511.4716,0 369.8658,0 249.3953,49.719008 149.0031,150.21488 Z m 25.3622,393.52066 c 0,-7.40496 4.2271,-12.69422 13.7379,-14.80992 H 751.356 c 7.3974,0 12.6812,4.2314 15.8514,12.69421 v 276.09918 c 0,7.40496 -4.227,12.69421 -11.6243,15.86777 h -5.2838 c -4.2271,-1.05785 -16.9082,-7.40496 -36.9866,-16.92562 C 425.8741,675.96694 278.9845,605.09091 272.644,601.91736 219.806,576.52893 189.16,561.71901 179.6491,556.42975 c -3.1703,-4.2314 -5.2838,-8.46281 -5.2838,-12.69421 z m 82.4273,15.86777 c 8.454,4.2314 143.7193,69.81818 404.7389,196.76033 l 75.0299,37.02479 V 559.60331 Z m -82.4273,-77.22314 c 0,-7.40496 6.3406,-13.75207 19.0217,-17.98348 7.3973,-4.2314 96.1651,-47.6033 266.3034,-130.1157 183.8762,-89.91735 280.0413,-136.46281 288.4954,-139.63636 l 3.1702,-1.05785 c 10.5676,1.05785 15.8514,6.3471 15.8514,15.86777 v 273.98347 c 0,8.46281 -5.2838,13.75206 -15.8514,14.80991 H 190.2167 c -7.3973,0 -12.6811,-4.2314 -15.8514,-11.63636 0,-1.05785 0,-3.17355 0,-4.2314 z"
     fill="#000000"
     id="path1-16"
     style="stroke-width:1.05731" />
</svg>
