<?xml version="1.0" encoding="UTF-8" standalone="no"?>
<svg
   viewBox="0 0 1048576 1048576"
   version="1.1"
   id="svg1"
   width="1048576"
   height="1048576"
   xmlns="http://www.w3.org/2000/svg"
   xmlns:svg="http://www.w3.org/2000/svg">
  <defs
     id="defs1" />
  <path
     d="M 149.0031,150.21488 C 49.6677,249.65289 0,370.24793 0,512 0,653.75207 49.6677,774.34711 150.05986,873.78512 249.3953,974.281 369.8658,1024 511.4716,1024 654.1342,1024 774.6047,974.281 873.9401,873.78512 974.3323,774.34711 1024,653.75207 1024,512 1024,370.24793 974.3323,249.65289 873.9401,149.15702 774.6047,49.71901 654.1342,0 511.4716,0 369.8658,0 249.3953,49.71901 149.0031,150.21488 Z m 199.7276,477.09091 h 232.4871 c 11.6243,1.05785 17.9649,7.40495 19.0216,19.04132 -1.0567,12.69421 -7.3973,19.04132 -19.0216,20.09917 H 348.7307 c -12.6812,-1.05785 -19.0217,-7.40496 -20.0785,-20.09917 1.0568,-11.63637 7.3973,-17.98347 20.0785,-19.04132 z m -98.2787,77.22314 h 349.7874 c 43.3272,-1.05786 80.3137,-15.86777 110.9598,-44.42976 28.5325,-29.61983 43.3271,-66.64462 44.3839,-111.07438 -1.0568,-43.3719 -15.8514,-79.33884 -44.3839,-110.01653 -29.5893,-29.61983 -66.5759,-44.42975 -110.9598,-45.4876 v -77.22314 c 66.5759,2.1157 121.5274,24.33058 165.9113,67.70248 43.3271,43.3719 65.5191,98.38017 67.6326,165.02479 -2.1135,60.29752 -22.192,112.13223 -60.2353,155.50414 h 21.1352 c 11.6243,0 20.0784,4.2314 27.4757,11.63636 7.3973,7.40496 11.6244,15.86777 11.6244,27.50413 0,11.63637 -4.2271,20.09918 -11.6244,27.50413 -7.3973,7.40496 -15.8514,11.63637 -27.4757,11.63637 H 250.452 c -11.6243,0 -20.0784,-4.23141 -26.419,-11.63637 -7.3973,-7.40495 -11.6243,-16.92562 -11.6243,-27.50413 0,-11.63636 4.227,-20.09917 11.6243,-27.50413 7.3973,-7.40496 15.8514,-11.63636 26.419,-11.63636 z M 416.3633,199.93388 c 0,-11.63636 3.1702,-20.09917 10.5676,-27.50413 7.3973,-7.40496 16.9081,-11.63636 28.5325,-11.63636 h 19.0216 c 11.6244,0 20.0785,4.2314 27.4758,11.63636 7.3973,7.40496 10.5676,15.86777 10.5676,25.38843 v 2.1157 h 10.5676 c 10.5676,0 20.0784,3.17356 27.4757,10.57852 7.3973,8.46281 10.5676,17.98347 10.5676,27.50413 v 272.92562 c 0,11.63636 -3.1703,20.09917 -10.5676,27.50413 -7.3973,7.40496 -15.8514,10.57851 -27.4757,10.57851 h -10.5676 c 0,10.57852 -3.1703,20.09918 -10.5676,28.56199 -7.3973,7.40496 -16.9082,10.57851 -27.4758,10.57851 h -19.0216 c -10.5676,0 -20.0785,-3.17355 -28.5325,-10.57851 -7.3974,-7.40496 -10.5676,-16.92562 -10.5676,-28.56199 h -10.5676 c -11.6244,0 -20.0785,-3.17355 -26.419,-10.57851 -7.3973,-7.40496 -11.6244,-16.92562 -11.6244,-27.50413 V 238.01653 c 0,-10.57851 4.2271,-20.09917 11.6244,-27.50413 7.3973,-7.40496 16.9081,-10.57852 26.419,-10.57852 z"
     fill="#000000"
     id="path1-34-7"
     style="stroke-width:1.05731" />
</svg>
