<?xml version="1.0" encoding="UTF-8" standalone="no"?>
<svg
   viewBox="0 0 1048576 1048576"
   version="1.1"
   id="svg1"
   width="1048576"
   height="1048576"
   xmlns="http://www.w3.org/2000/svg"
   xmlns:svg="http://www.w3.org/2000/svg">
  <defs
     id="defs1" />
  <path
     d="M 149.0031,150.21488 C 49.667699,249.65289 0,370.24793 0,512 0,653.75207 49.667699,774.34711 150.05986,873.78512 249.39525,974.28099 369.86584,1024 511.47162,1024 654.13416,1024 774.60475,974.28099 873.94014,873.78512 974.3323,774.34711 1024,653.75207 1024,512 1024,370.24793 974.3323,249.65289 873.94014,149.15702 774.60475,49.719008 654.13416,0 511.47162,0 369.86584,0 249.39525,49.719008 149.0031,150.21488 Z m 550.57172,70.87603 c 15.85139,1.05785 24.30547,9.52066 24.30547,24.33058 v 111.07438 h 49.6677 v 71.93388 c 1.05676,2.1157 2.11352,3.17356 3.17028,3.17356 h 46.49742 c 15.85139,0 24.30547,7.40495 24.30547,23.27272 v 178.77686 c 0,15.86777 -10.5676,24.33058 -30.64603,24.33058 h -90.88132 l -2.11352,8.46281 v 87.80165 c -2.11352,15.86777 -8.45408,24.33058 -19.02167,24.33058 h -2.11352 c -53.89474,0 -122.58411,1.05785 -205.01135,2.1157 -62.34882,-1.05785 -113.07328,-2.1157 -153.23014,-2.1157 -11.62435,-3.17355 -17.96491,-11.63636 -17.96491,-24.33058 v -96.26446 h -97.22188 c -17.96491,-1.05785 -26.41899,-8.46281 -26.41899,-24.33058 V 454.87603 c 0,-15.86777 13.73788,-24.33058 41.21363,-24.33058 h 31.70278 V 357.55372 H 326.5387 V 253.8843 c 0,-22.21488 8.45408,-32.79339 26.41899,-32.79339 z M 350.84417,623.07438 V 754.24793 H 699.57482 V 638.94215 l 1.05676,-10.57851 c -1.05676,-7.40496 -4.22704,-11.63637 -9.51084,-11.63637 -9.51083,0 -17.96491,1.05785 -23.24871,2.11571 -60.23529,-1.05786 -109.90299,-2.11571 -146.88957,-2.11571 h -3.17028 c -34.87307,0 -81.37049,1.05785 -140.54902,2.11571 -3.17028,-1.05786 -8.45408,-2.11571 -14.79464,-2.11571 -7.39731,2.11571 -11.62435,4.23141 -11.62435,6.34711 z m 63.40557,81.45455 h 218.74923 c 3.17028,0 4.22704,1.05785 4.22704,3.17355 v 11.63636 H 417.42002 c -2.11352,0 -3.17028,-1.05785 -3.17028,-3.17355 z m 0,-49.71901 h 222.97627 v 11.63636 c 0,2.1157 -1.05676,3.17355 -4.22704,3.17355 h -41.21362 c -11.62436,0 -19.02168,0 -24.30547,-1.05785 l -20.07844,1.05785 c -64.46233,-1.05785 -104.61919,-1.05785 -120.47058,-1.05785 l -11.62436,1.05785 -1.05676,-3.17355 z m -13.73787,-171.3719 v 21.15702 h 249.39525 v -20.09917 c 0,-2.1157 -1.05676,-3.17356 -3.17028,-3.17356 H 494.56347 c -21.13519,0 -52.83798,1.05786 -94.0516,2.11571 z m -49.6677,-238.01653 v 185.12396 h 348.73065 v -2.1157 c 0,-27.50413 -1.05676,-88.8595 -2.11352,-183.00826 z"
     fill="#000000"
     id="path1-6"
     style="stroke-width:1.05731" />
</svg>
