<?xml version="1.0" encoding="UTF-8" standalone="no"?>
<svg
   viewBox="0 0 1048576 1048576"
   version="1.1"
   id="svg1"
   width="1048576"
   height="1048576"
   xmlns="http://www.w3.org/2000/svg"
   xmlns:svg="http://www.w3.org/2000/svg">
  <defs
     id="defs1" />
  <path
     d="M 149.0031,150.21488 C 49.6677,249.65289 0,370.24793 0,512 0,653.75207 49.6677,774.34711 150.05986,873.7851 249.3953,974.281 369.8658,1024 511.4716,1024 654.1342,1024 774.6047,974.281 873.9401,873.7851 974.3323,774.34711 1024,653.75207 1024,512 1024,370.24793 974.3323,249.65289 873.9401,149.15702 774.6047,49.71901 654.1342,0 511.4716,0 369.8658,0 249.3953,49.71901 149.0031,150.21488 Z m 338.1631,20.09917 c 7.3973,0 11.6243,4.2314 14.7946,13.75207 v 564.89256 c 0,7.40496 -4.2271,12.69421 -13.7379,14.80992 H 212.4087 c -7.3973,0 -11.6244,-4.23141 -14.7947,-11.63637 v -5.28925 c 1.0568,-4.23141 6.3406,-16.92562 16.9082,-37.0248 139.4922,-287.73554 211.3519,-434.77686 214.5222,-441.12397 25.3622,-52.89256 40.1568,-83.57024 45.4406,-93.0909 3.1703,-3.17356 7.3974,-5.28926 12.6812,-5.28926 z m -16.9082,82.5124 c -3.1703,8.46281 -68.6894,143.86776 -196.5573,405.15702 l -35.9298,75.10744 H 471.3148 V 252.82645 Z m 78.2002,-82.5124 c 7.3973,0 12.6811,6.34711 16.9082,19.04132 4.227,7.40496 47.5541,97.32232 131.0381,267.63637 C 786.2291,640 832.7265,736.26446 835.8968,744.72727 v 3.17356 c -1.0568,10.57851 -6.3406,15.86777 -15.8514,15.86777 h -272.644 c -9.5108,0 -14.7946,-5.28926 -15.8513,-15.86777 V 187.23967 c 0,-8.46281 4.227,-13.75207 12.6811,-16.92562 1.0567,0 2.1135,0 4.227,0 z"
     fill="#000000"
     id="path1-3"
     style="stroke-width:1.05731" />
</svg>
