<?xml version="1.0" encoding="UTF-8" standalone="no"?>
<svg
   viewBox="0 0 1048576 1048576"
   version="1.1"
   id="svg1"
   width="1048576"
   height="1048576"
   xmlns="http://www.w3.org/2000/svg"
   xmlns:svg="http://www.w3.org/2000/svg">
  <defs
     id="defs1" />
  <path
     d="M 149.00309,150.21487 C 49.667697,249.65288 0,370.24792 0,511.99998 0,653.75204 49.667697,774.34708 150.05985,873.78509 249.39524,974.28095 369.86583,1024 511.4716,1024 654.13413,1024 774.60471,974.28095 873.94011,873.78509 974.33226,774.34708 1024,653.75204 1024,511.99998 1024,370.24792 974.33226,249.65288 873.94011,149.15702 774.60471,49.719006 654.13413,-8.0000007e-7 511.4716,-8.0000007e-7 369.86583,-8.0000007e-7 249.39524,49.719006 149.00309,150.21487 Z m 333.936,-21.15702 h 2.11352 c 3.17028,0 7.39732,4.2314 11.62436,11.63636 0,9.52066 -5.2838,16.92562 -16.90816,22.21487 45.44066,94.14876 67.63261,149.15702 67.63261,165.02479 0,24.33058 -11.62435,48.66116 -35.92982,70.87603 v 77.22314 h 50.72445 v -25.38843 c 1.05676,-4.2314 2.11352,-6.34711 5.2838,-6.34711 h 57.06501 c 3.17028,1.05785 5.2838,3.17356 5.2838,6.34711 v 25.38843 c 1.05676,3.17355 25.36223,14.80992 73.97317,37.02479 v 76.16529 c 0,5.28925 -24.30547,16.92562 -73.97317,37.02479 v 31.73554 h -62.34881 c -3.17028,0 -5.2838,-2.11571 -5.2838,-6.34711 V 629.42146 H 451.23631 v 53.95041 c 0,13.75207 -7.39732,22.21488 -22.19195,25.38843 -7.39732,-3.17355 -13.73788,-7.40496 -16.90815,-13.75206 v -65.58678 h -34.87307 v 79.33884 c 0,49.71901 -26.41899,88.8595 -79.25696,116.36364 -3.17028,2.1157 -7.39732,3.17355 -11.62436,3.17355 h -5.28379 c -28.53251,-3.17355 -42.27038,-17.98347 -42.27038,-42.31405 V 629.42146 h -16.90816 c -21.13518,0 -31.70278,-12.69421 -31.70278,-37.02479 v -79.33884 c 2.11352,-24.33058 11.62435,-37.02479 28.53251,-37.02479 h 249.39524 v -60.29752 h -8.45408 c -47.55417,0 -82.42724,-32.79339 -102.50567,-99.43801 l -39.1001,-79.33884 c -9.51084,5.28925 -16.90815,8.46281 -20.07843,8.46281 -8.45408,-3.17356 -12.68112,-7.40496 -13.73787,-10.57851 v -3.17356 c 0,-13.75206 17.96491,-25.38843 53.89473,-37.02479 89.82456,-43.3719 138.43549,-65.58677 144.77605,-65.58677 z m 264.18988,480.26444 c 81.37048,37.02479 121.52734,59.23967 121.52734,65.58677 0,9.52067 -3.17028,15.86777 -8.45408,16.92562 h -8.45407 c -81.37048,-34.90909 -122.5841,-56.06611 -122.5841,-65.58677 0,-5.28926 6.34055,-11.63636 17.96491,-16.92562 z m -506.1878,-13.75207 c 3.17027,7.40496 5.28379,10.57852 8.45407,10.57852 h 114.13003 l 13.73787,-2.11571 v -11.63636 c 0,-3.17355 -2.11352,-5.28925 -5.2838,-5.28925 h -122.5841 z m 499.84724,-53.95041 h 119.41382 c 5.2838,1.05785 8.45408,7.40496 8.45408,16.92562 v 2.11571 c -3.17028,7.40495 -11.62436,11.63636 -25.36223,11.63636 h -90.88132 c -13.73787,0 -22.19195,-5.28926 -23.2487,-16.92562 4.22703,-8.46281 8.45407,-12.69422 11.62435,-13.75207 z m -499.84724,10.57852 c 2.11351,4.2314 3.17027,7.40495 3.17027,8.46281 h 127.8679 c 3.17028,0 5.2838,-2.11571 5.2838,-5.28926 v -5.28926 c 0,-4.2314 -2.11352,-6.3471 -5.2838,-6.3471 h -122.5841 c -2.11352,0 -5.2838,3.17355 -8.45407,8.46281 z m 0,-45.48761 c 3.17027,7.40496 5.28379,11.63637 8.45407,11.63637 h 122.5841 c 3.17028,0 5.2838,-2.11571 5.2838,-5.28926 v -11.63636 l -13.73787,-3.17356 c -5.2838,0 -8.45408,1.05786 -8.45408,3.17356 l -14.79463,-3.17356 h -25.36223 c -1.05676,0 -2.11352,1.05786 -2.11352,3.17356 l -6.34055,-3.17356 h -30.64603 c -2.11352,0 -3.17028,1.05786 -3.17028,3.17356 l -5.2838,-3.17356 h -9.51083 c -6.34056,0 -11.62436,3.17356 -16.90815,8.46281 z m 613.97727,-90.9752 c 8.45407,4.23141 12.68111,8.46281 13.73787,11.63636 v 8.46281 c 0,7.40496 -42.27038,28.56199 -127.8679,65.58678 l -11.62435,-16.92562 c 0,-9.52066 42.27037,-31.73554 125.75438,-68.76033 z M 360.35499,251.76858 c 8.45408,20.09918 14.79463,30.67769 20.07843,30.67769 77.14344,-8.46281 115.18679,-13.75207 116.24355,-16.92562 -22.19195,-41.2562 -33.81631,-62.41322 -33.81631,-65.58677 -67.63261,26.44628 -101.44891,44.42975 -102.50567,51.8347 z"
     fill="#000000"
     id="path1-2"
     style="stroke-width:1.05731" />
</svg>
