<?xml version="1.0" encoding="UTF-8" standalone="no"?>
<svg
   viewBox="0 0 1048576 1048576"
   version="1.1"
   id="svg1"
   width="1048576"
   height="1048576"
   xmlns="http://www.w3.org/2000/svg"
   xmlns:svg="http://www.w3.org/2000/svg">
  <defs
     id="defs1" />
  <path
     d="M 149.00309,150.21487 C 49.667697,249.65288 0,370.24792 0,511.99998 0,653.75204 49.667697,774.34708 150.05985,873.78509 249.39524,974.28095 369.86583,1024 511.4716,1024 654.13413,1024 774.60471,974.28095 873.94011,873.78509 974.33226,774.34708 1024,653.75204 1024,511.99998 1024,370.24792 974.33226,249.65288 873.94011,149.15702 774.60471,49.719006 654.13413,-8.0000007e-7 511.4716,-8.0000007e-7 369.86583,-8.0000007e-7 249.39524,49.719006 149.00309,150.21487 Z m 368.80907,-32.79339 h 7.39731 c 13.73788,0 38.04334,16.92562 75.02993,51.83471 13.73787,17.98347 27.47574,46.54545 41.21362,84.6281 5.28379,13.75206 24.30547,47.6033 54.95149,101.55371 5.2838,9.52066 7.39732,19.04132 7.39732,28.56198 0,16.92562 -15.8514,40.19835 -47.55418,70.87604 70.80289,28.56198 109.90299,49.719 118.35706,63.47107 14.79464,17.98347 22.19195,38.08264 22.19195,59.23966 0,1.05786 16.90816,60.29752 50.72446,175.6033 h -99.33539 c -3.17028,0 -6.34056,13.75207 -8.45408,42.31405 v 1.05785 H 751.356 l 3.17028,1.05785 c -3.17028,15.86777 -9.51083,23.27273 -20.07843,23.27273 -4.22704,7.40496 -9.51083,10.57851 -14.79463,10.57851 H 501.96076 c -45.44066,0 -105.67595,0 -178.59235,1.05785 -7.39732,0 -13.73788,-4.2314 -21.13519,-12.69421 -11.62436,0 -16.90816,-7.40496 -16.90816,-23.27273 h 12.68112 l 3.17028,-1.05785 c -3.17028,-28.56198 -6.34056,-42.31405 -7.39732,-42.31405 H 191.27347 v -1.05785 c 32.75954,-111.07437 48.61094,-168.19834 48.61094,-171.37189 0,-47.60331 30.64602,-82.5124 92.99483,-103.66942 31.70279,-13.75207 48.61094,-22.21487 51.78122,-24.33058 -30.64603,-28.56198 -46.49742,-51.83471 -46.49742,-69.81818 0,-11.63636 12.68111,-37.02479 36.98658,-76.16528 13.73788,-24.33058 28.53251,-57.12397 42.27038,-96.26446 9.51084,-24.33058 23.24871,-43.3719 41.21362,-58.18182 26.41899,-23.27272 45.44066,-34.90909 59.17854,-34.90909 z M 283.21155,582.87601 c 1.05676,11.63636 2.11351,20.09917 2.11351,23.27273 h 1.05676 c 0,-16.92562 5.2838,-25.38843 16.90816,-25.38843 h 429.04435 c 10.5676,1.05785 15.8514,4.2314 15.8514,11.63636 -3.17028,42.31405 -4.22704,64.52892 -4.22704,67.70248 v 4.2314 h 1.05676 l 10.56759,-80.39669 c -2.11352,-10.57851 -8.45407,-15.86777 -17.96491,-15.86777 H 298.00618 c -9.51084,1.05785 -14.79463,6.34711 -14.79463,14.80992 z M 546.34466,397.75205 c -1.05676,0 -8.45407,-1.05785 -21.13519,-4.2314 -5.2838,0 -8.45407,8.46281 -8.45407,24.33057 v 24.33058 c 0,1.05785 1.05676,3.17355 4.22703,4.23141 3.17028,0 7.39732,-3.17356 14.79464,-8.46281 h 1.05676 v 2.1157 c 0,4.2314 -4.22704,11.63636 -12.68112,21.15702 h 1.05676 c 11.62436,-1.05785 20.07843,-2.1157 26.41899,-3.17355 v 2.1157 c -13.73787,5.28926 -24.30547,8.46281 -33.8163,11.63636 v 1.05786 c 0,2.1157 1.05675,3.17355 4.22703,3.17355 5.2838,0 11.62436,-1.05785 19.02167,-3.17355 -3.17027,7.40495 -11.62435,13.75206 -24.30546,21.15702 l -1.05676,2.1157 c 3.17027,3.17356 5.28379,4.23141 8.45407,4.23141 h 5.2838 c 13.73787,0 27.47575,-14.80992 42.27038,-45.4876 14.79463,-15.86777 22.19195,-33.85124 22.19195,-53.95042 1.05676,0 2.11352,-2.1157 3.17028,-7.40495 -2.11352,-5.28926 -4.22704,-8.46281 -5.2838,-8.46281 -2.11352,0 -14.79463,4.2314 -39.1001,12.69421 z"
     fill="#000000"
     id="path1-8"
     style="stroke-width:1.05731" />
</svg>
