<?xml version="1.0" encoding="UTF-8" standalone="no"?>
<svg
   viewBox="0 0 1048576 1048576"
   version="1.1"
   id="svg1"
   width="1048576"
   height="1048576"
   xmlns="http://www.w3.org/2000/svg"
   xmlns:svg="http://www.w3.org/2000/svg">
  <defs
     id="defs1" />
  <path
     d="M 1024,512 C 1022.976,416.768 1000.448,330.752 954.368,253.952 908.288,176.128 846.848,114.688 770.048,69.632 693.248,23.552 607.232,1.024 512,0 416.768,1.024 330.752,23.552 253.952,69.632 176.128,115.712 114.688,177.152 69.632,253.952 23.552,330.752 1.024,416.768 0,512 c 1.024,95.232 23.552,181.248 69.632,258.048 46.08,77.824 107.52,139.264 184.32,184.32 76.8,46.08 162.816,68.608 258.048,69.632 95.232,-1.024 181.248,-23.552 258.048,-69.632 77.824,-46.08 139.264,-107.52 184.32,-184.32 46.08,-76.8 68.608,-162.816 69.632,-258.048 z M 444.416,327.68 c 0,-11.264 4.096,-21.504 12.288,-28.672 7.168,-7.168 17.408,-11.264 28.672,-11.264 h 286.72 c 11.264,0 21.504,4.096 29.696,11.264 7.168,8.192 11.264,18.432 11.264,28.672 0,12.288 -4.096,21.504 -11.264,29.696 -8.192,8.192 -18.432,12.288 -29.696,12.288 h -286.72 c -12.288,0 -21.504,-4.096 -28.672,-12.288 -8.192,-8.192 -12.288,-17.408 -12.288,-29.696 z m -71.68,-73.728 c 7.168,8.192 10.24,15.36 10.24,23.552 0,7.168 -2.048,13.312 -7.168,20.48 l -92.16,102.4 c -5.12,7.168 -13.312,10.24 -22.528,10.24 -9.216,0 -16.384,-3.072 -22.528,-9.216 l -51.2,-51.2 c -6.144,-7.168 -9.216,-14.336 -9.216,-21.504 0,-7.168 3.072,-15.36 9.216,-22.528 7.168,-6.144 14.336,-8.192 21.504,-8.192 7.168,0 15.36,2.048 22.528,8.192 l 27.648,28.672 70.656,-77.824 c 7.168,-7.168 15.36,-10.24 22.528,-10.24 7.168,0 13.312,2.048 20.48,7.168 z M 329.728,532.48 c -2.048,16.384 -7.168,30.72 -18.432,41.984 -12.288,12.288 -26.624,17.408 -43.008,18.432 -16.384,-1.024 -30.72,-7.168 -41.984,-18.432 -12.288,-12.288 -18.432,-25.6 -18.432,-41.984 1.024,-17.408 7.168,-31.744 18.432,-43.008 11.264,-12.288 25.6,-17.408 41.984,-18.432 17.408,1.024 31.744,7.168 43.008,18.432 11.264,12.288 17.408,26.624 18.432,43.008 z m -61.44,262.144 c -16.384,0 -30.72,-6.144 -41.984,-17.408 -12.288,-12.288 -18.432,-26.624 -18.432,-43.008 1.024,-17.408 7.168,-31.744 18.432,-43.008 11.264,-11.264 25.6,-16.384 41.984,-17.408 17.408,1.024 31.744,6.144 43.008,17.408 11.264,13.312 17.408,27.648 18.432,43.008 -2.048,18.432 -7.168,31.744 -18.432,43.008 -11.264,11.264 -25.6,17.408 -43.008,17.408 z M 430.08,693.248 h 364.544 c 11.264,0 20.48,4.096 28.672,12.288 7.168,7.168 11.264,17.408 11.264,28.672 0,11.264 -4.096,20.48 -11.264,28.672 -7.168,8.192 -16.384,11.264 -28.672,11.264 H 430.08 c -11.264,0 -21.504,-3.072 -28.672,-11.264 -8.192,-7.168 -11.264,-16.384 -11.264,-28.672 0,-11.264 3.072,-20.48 11.264,-28.672 7.168,-8.192 17.408,-12.288 28.672,-12.288 z m 0,-201.728 h 364.544 c 11.264,0 20.48,4.096 28.672,11.264 7.168,8.192 11.264,17.408 11.264,29.696 0,11.264 -4.096,20.48 -11.264,28.672 -7.168,8.192 -16.384,11.264 -28.672,11.264 H 430.08 c -11.264,0 -21.504,-3.072 -28.672,-11.264 -8.192,-8.192 -11.264,-17.408 -11.264,-28.672 0,-12.288 3.072,-21.504 11.264,-29.696 7.168,-7.168 17.408,-11.264 28.672,-11.264 z"
     fill="#000000"
     id="path1-5"
     style="display:inline;stroke-width:1.024" />
</svg>
