<?xml version="1.0" encoding="UTF-8" standalone="no"?>
<svg
   viewBox="0 0 1048576 1048576"
   version="1.1"
   id="svg1"
   width="1048576"
   height="1048576"
   xmlns="http://www.w3.org/2000/svg"
   xmlns:svg="http://www.w3.org/2000/svg">
  <defs
     id="defs1" />
  <path
     d="M 1024,512 C 1022.976,416.768 1000.448,330.752 954.368,253.952 908.288,176.128 846.848,114.688 770.048,69.632 693.248,23.552 607.232,1.024 512,0 416.768,1.024 330.752,23.552 253.952,69.632 176.128,115.712 114.688,177.152 69.632,253.952 23.552,330.752 1.024,416.768 0,512 c 1.024,95.232 23.552,181.248 69.632,258.048 46.08,77.824 107.52,139.264 184.32,184.32 76.8,46.08 162.816,68.608 258.048,69.632 95.232,-1.024 181.248,-23.552 258.048,-69.632 77.824,-46.08 139.264,-107.52 184.32,-184.32 46.08,-76.8 68.608,-162.816 69.632,-258.048 z M 408.576,267.264 c 7.168,-23.552 21.504,-41.984 41.984,-57.344 20.48,-14.336 43.008,-21.504 69.632,-22.528 26.624,1.024 49.152,8.192 69.632,22.528 19.456,14.336 33.792,32.768 43.008,57.344 h 46.08 c 22.528,0 40.96,8.192 56.32,23.552 14.336,14.336 22.528,32.768 23.552,55.296 v 397.312 c -1.024,22.528 -9.216,40.96 -23.552,56.32 -15.36,15.36 -33.792,23.552 -56.32,23.552 h -317.44 c -22.528,0 -41.984,-8.192 -56.32,-23.552 -15.36,-15.36 -22.528,-33.792 -23.552,-56.32 V 346.112 c 1.024,-22.528 8.192,-40.96 23.552,-55.296 14.336,-15.36 33.792,-23.552 56.32,-23.552 z m -7.168,287.744 c 18.432,-2.048 27.648,-11.264 28.672,-29.696 -1.024,-18.432 -11.264,-28.672 -28.672,-29.696 -18.432,1.024 -28.672,11.264 -29.696,29.696 1.024,17.408 11.264,27.648 29.696,29.696 z m 78.848,-29.696 c 1.024,12.288 7.168,19.456 20.48,20.48 h 158.72 c 12.288,-1.024 18.432,-8.192 19.456,-20.48 -1.024,-12.288 -7.168,-19.456 -19.456,-19.456 h -158.72 c -13.312,0 -19.456,7.168 -20.48,19.456 z m -78.848,149.504 c 18.432,-2.048 27.648,-12.288 28.672,-29.696 -1.024,-18.432 -11.264,-28.672 -28.672,-30.72 -18.432,2.048 -28.672,12.288 -29.696,30.72 1.024,17.408 11.264,27.648 29.696,29.696 z m 78.848,-29.696 c 1.024,12.288 7.168,18.432 20.48,19.456 h 158.72 c 12.288,-1.024 18.432,-7.168 19.456,-19.456 -1.024,-13.312 -7.168,-20.48 -19.456,-20.48 h -158.72 c -13.312,0 -19.456,7.168 -20.48,20.48 z m 79.872,-338.944 c 0,-11.264 -4.096,-21.504 -11.264,-27.648 -8.192,-8.192 -17.408,-11.264 -28.672,-11.264 -11.264,0 -21.504,3.072 -28.672,11.264 -8.192,7.168 -11.264,16.384 -11.264,27.648 0,11.264 3.072,21.504 11.264,28.672 7.168,8.192 17.408,11.264 28.672,11.264 11.264,0 20.48,-3.072 28.672,-11.264 7.168,-8.192 11.264,-17.408 11.264,-28.672 z"
     fill="#000000"
     id="path1-8"
     style="stroke-width:1.024" />
</svg>
