<?xml version="1.0" encoding="UTF-8" standalone="no"?>
<svg
   viewBox="0 0 1048576 1048576"
   version="1.1"
   id="svg1"
   width="1048576"
   height="1048576"
   xmlns="http://www.w3.org/2000/svg"
   xmlns:svg="http://www.w3.org/2000/svg">
  <defs
     id="defs1" />
  <path
     d="M 1024,512 C 1022.976,416.768 1000.448,330.752 954.368,253.952 908.288,176.128 846.848,114.688 770.048,69.632 693.248,23.552 607.232,1.024 512,0 416.768,1.024 330.752,23.552 253.952,69.632 176.128,115.712 114.688,177.152 69.632,253.952 23.552,330.752 1.024,416.768 0,512 c 1.024,95.232 23.552,181.248 69.632,258.048 46.08,77.824 107.52,139.264 184.32,184.32 76.8,46.08 162.816,68.608 258.048,69.632 95.232,-1.024 181.248,-23.552 258.048,-69.632 77.824,-46.08 139.264,-107.52 184.32,-184.32 46.08,-76.8 68.608,-162.816 69.632,-258.048 z M 521.216,187.392 c 25.6,1.024 49.152,8.192 69.632,22.528 19.456,14.336 34.816,33.792 43.008,57.344 h 46.08 c 22.528,1.024 40.96,8.192 56.32,23.552 14.336,14.336 22.528,32.768 23.552,55.296 v 397.312 c -1.024,22.528 -9.216,40.96 -23.552,56.32 -15.36,15.36 -33.792,23.552 -56.32,23.552 h -317.44 c -22.528,0 -41.984,-8.192 -56.32,-23.552 -15.36,-15.36 -22.528,-33.792 -23.552,-56.32 V 346.112 c 1.024,-22.528 8.192,-40.96 23.552,-55.296 14.336,-15.36 33.792,-22.528 56.32,-23.552 H 409.6 c 7.168,-23.552 21.504,-41.984 41.984,-57.344 20.48,-14.336 43.008,-21.504 69.632,-22.528 z M 665.6,530.432 c 6.144,-7.168 9.216,-15.36 9.216,-24.576 v -2.048 c 0,-8.192 -3.072,-16.384 -9.216,-23.552 -8.192,-7.168 -16.384,-10.24 -25.6,-10.24 -9.216,0 -17.408,3.072 -24.576,10.24 L 481.28,614.4 c -21.504,-21.504 -35.84,-35.84 -44.032,-43.008 -7.168,-7.168 -10.24,-10.24 -10.24,-11.264 -7.168,-7.168 -15.36,-10.24 -24.576,-10.24 -10.24,0 -18.432,3.072 -25.6,10.24 -6.144,7.168 -9.216,15.36 -9.216,24.576 v 2.048 c 0,8.192 3.072,15.36 9.216,22.528 l 79.872,79.872 c 7.168,7.168 15.36,10.24 24.576,10.24 9.216,0 18.432,-3.072 25.6,-10.24 z M 521.216,346.112 c 11.264,0 20.48,-3.072 28.672,-11.264 7.168,-7.168 11.264,-17.408 11.264,-28.672 0,-11.264 -4.096,-20.48 -11.264,-27.648 -8.192,-8.192 -17.408,-11.264 -28.672,-11.264 -11.264,0 -21.504,3.072 -28.672,11.264 -8.192,7.168 -11.264,16.384 -11.264,27.648 0,11.264 3.072,20.48 11.264,28.672 7.168,8.192 17.408,11.264 28.672,11.264 z"
     fill="#000000"
     id="path1-5"
     style="stroke-width:1.024" />
</svg>
