<?xml version="1.0" encoding="UTF-8" standalone="no"?>
<svg
   viewBox="0 0 1048576 1048576"
   version="1.1"
   id="svg1"
   width="1048576"
   height="1048576"
   xmlns="http://www.w3.org/2000/svg"
   xmlns:svg="http://www.w3.org/2000/svg">
  <defs
     id="defs1" />
  <path
     d="M 1024,512 C 1022.976,416.768 1000.448,330.752 954.368,253.952 908.288,176.128 846.848,114.688 770.048,69.632 693.248,23.552 607.232,1.024 512,0 416.768,1.024 330.752,23.552 253.952,69.632 176.128,115.712 114.688,177.152 69.632,253.952 23.552,330.752 1.024,416.768 0,512 c 1.024,95.232 23.552,181.248 69.632,258.048 46.08,77.824 107.52,139.264 184.32,184.32 76.8,46.08 162.816,68.608 258.048,69.632 95.232,-1.024 181.248,-23.552 258.048,-69.632 77.824,-46.08 139.264,-107.52 184.32,-184.32 46.08,-76.8 68.608,-162.816 69.632,-258.048 z m -748.544,83.968 h 125.952 l 56.32,56.32 c 16.384,16.384 34.816,24.576 56.32,24.576 20.48,0 38.912,-8.192 56.32,-24.576 l 57.344,-56.32 H 752.64 c 22.528,1.024 40.96,9.216 56.32,24.576 14.336,15.36 22.528,33.792 23.552,56.32 v 38.912 c -1.024,22.528 -9.216,40.96 -23.552,56.32 -15.36,15.36 -33.792,23.552 -56.32,23.552 H 275.456 c -22.528,0 -40.96,-8.192 -56.32,-23.552 -15.36,-15.36 -22.528,-33.792 -23.552,-56.32 v -38.912 c 0,-21.504 8.192,-40.96 23.552,-56.32 15.36,-15.36 33.792,-23.552 56.32,-24.576 z m 457.728,130.048 c 18.432,-1.024 27.648,-11.264 29.696,-29.696 -2.048,-18.432 -11.264,-28.672 -29.696,-29.696 -18.432,1.024 -28.672,11.264 -29.696,29.696 1.024,18.432 11.264,28.672 29.696,29.696 z M 552.96,198.656 v 302.08 L 644.096,409.6 c 8.192,-8.192 18.432,-12.288 28.672,-12.288 11.264,0 20.48,4.096 28.672,12.288 7.168,8.192 11.264,17.408 11.264,27.648 0,9.216 -4.096,19.456 -11.264,28.672 L 542.72,624.64 c -8.192,8.192 -17.408,12.288 -28.672,12.288 -11.264,0 -20.48,-4.096 -28.672,-12.288 L 325.632,465.92 c -7.168,-8.192 -10.24,-18.432 -10.24,-28.672 0,-10.24 3.072,-19.456 10.24,-27.648 8.192,-8.192 18.432,-12.288 28.672,-12.288 11.264,0 21.504,4.096 28.672,12.288 l 91.136,91.136 v -302.08 c 0,-10.24 4.096,-19.456 11.264,-28.672 7.168,-7.168 17.408,-11.264 28.672,-11.264 11.264,0 20.48,4.096 28.672,11.264 7.168,8.192 10.24,18.432 10.24,28.672 z"
     fill="#000000"
     id="path1-8"
     style="stroke-width:1.024" />
  <path
     fill="currentColor"
     d="m 512,0 c 282.8,0 512,229.2 512,512 0,282.8 -229.2,512 -512,512 C 229.2,1024 0,794.8 0,512 0,229.2 229.2,0 512,0 Z M 201.4,489.4 c -12.4,12.4 -12.4,32.8 0,45.2 l 192,192 c 9.2,9.2 23,11.8 34.8,7 C 440,728.8 448,717 448,704 V 320 c 0,-13 -7.8,-24.6 -19.8,-29.6 -12,-5 -25.8,-2.2 -34.8,7 z m 621.2,45.2 c 12.4,-12.4 12.4,-32.8 0,-45.2 l -192,-192 c -9.2,-9.2 -23,-11.8 -34.8,-7 C 584,295.2 576,307 576,320 v 384 c 0,13 7.8,24.6 19.8,29.6 12,5 25.8,2.2 34.8,-7 z"
     id="path1"
     style="display:none" />
</svg>
