<?xml version="1.0" encoding="UTF-8" standalone="no"?>
<svg
   viewBox="0 0 1048576 1048576"
   version="1.1"
   id="svg1"
   width="1048576"
   height="1048576"
   xmlns="http://www.w3.org/2000/svg"
   xmlns:svg="http://www.w3.org/2000/svg">
  <defs
     id="defs1" />
  <path
     d="M 1024,512 C 1022.976,416.768 1000.448,330.752 954.368,253.952 908.288,176.128 846.848,114.688 770.048,69.632 693.248,23.552 607.232,1.024 512,0 416.768,1.024 330.752,23.552 253.952,69.632 176.128,115.712 114.688,177.152 69.632,253.952 23.552,330.752 1.024,416.768 0,512 c 1.024,95.232 23.552,181.248 69.632,258.048 46.08,77.824 107.52,139.264 184.32,184.32 76.8,46.08 162.816,68.608 258.048,69.632 95.232,-1.024 181.248,-23.552 258.048,-69.632 77.824,-46.08 139.264,-107.52 184.32,-184.32 46.08,-76.8 68.608,-162.816 69.632,-258.048 z M 680.96,776.192 c -40.96,-2.048 -74.752,-15.36 -102.4,-41.984 -25.6,-27.648 -39.936,-61.44 -41.984,-102.4 2.048,-41.984 16.384,-75.776 41.984,-102.4 27.648,-27.648 61.44,-41.984 102.4,-43.008 41.984,1.024 75.776,15.36 103.424,43.008 25.6,26.624 39.936,60.416 41.984,102.4 -2.048,40.96 -16.384,74.752 -41.984,102.4 -27.648,26.624 -61.44,39.936 -103.424,41.984 z m 67.584,-147.456 c -3.072,-4.096 -7.168,-5.12 -11.264,-5.12 -3.072,0 -7.168,1.024 -10.24,5.12 l -29.696,27.648 v -89.088 c -1.024,-10.24 -6.144,-15.36 -16.384,-16.384 -9.216,1.024 -14.336,6.144 -15.36,16.384 v 89.088 c -19.456,-18.432 -28.672,-27.648 -29.696,-27.648 -3.072,-4.096 -7.168,-5.12 -11.264,-5.12 -3.072,0 -7.168,1.024 -10.24,5.12 -4.096,3.072 -5.12,7.168 -5.12,11.264 0,3.072 1.024,7.168 5.12,10.24 l 55.296,56.32 c 4.096,3.072 8.192,5.12 11.264,5.12 4.096,0 8.192,-2.048 11.264,-5.12 l 56.32,-56.32 c 4.096,-3.072 5.12,-7.168 5.12,-11.264 0,-3.072 -1.024,-7.168 -5.12,-10.24 z m -389.12,147.456 c -13.312,0 -25.6,-5.12 -34.816,-14.336 -8.192,-9.216 -13.312,-21.504 -13.312,-33.792 0,-13.312 5.12,-24.576 13.312,-33.792 10.24,-9.216 21.504,-14.336 34.816,-14.336 13.312,1.024 24.576,5.12 33.792,14.336 9.216,9.216 14.336,20.48 14.336,33.792 0,13.312 -5.12,24.576 -14.336,33.792 -9.216,9.216 -20.48,14.336 -33.792,14.336 z M 206.848,261.12 h 72.704 c 11.264,0 19.456,7.168 23.552,20.48 l 2.048,12.288 h 422.912 c 9.216,0 18.432,4.096 24.576,12.288 4.096,6.144 7.168,13.312 7.168,20.48 0,3.072 -1.024,5.12 -1.024,8.192 l -34.816,124.928 c -13.312,-4.096 -26.624,-5.12 -43.008,-5.12 -34.816,0 -65.536,9.216 -93.184,26.624 -27.648,17.408 -49.152,40.96 -64.512,69.632 h -168.96 l 9.216,48.128 h 143.36 c -2.048,10.24 -3.072,21.504 -3.072,32.768 0,3.072 1.024,8.192 1.024,15.36 H 343.04 c -12.288,0 -19.456,-6.144 -23.552,-18.432 l -61.44,-319.488 h -51.2 c -15.36,-1.024 -23.552,-9.216 -24.576,-23.552 1.024,-15.36 9.216,-23.552 24.576,-24.576 z"
     fill="#000000"
     id="path1-7"
     style="stroke-width:1.024" />
</svg>
