<?xml version="1.0" encoding="UTF-8" standalone="no"?>
<svg
   viewBox="0 0 1048576 1048576"
   version="1.1"
   id="svg1"
   width="1048576"
   height="1048576"
   xmlns="http://www.w3.org/2000/svg"
   xmlns:svg="http://www.w3.org/2000/svg">
  <defs
     id="defs1" />
  <path
     d="M 1024,512 C 1022.976,416.768 1000.448,330.752 954.368,253.952 908.288,176.128 846.848,114.688 770.048,69.632 693.248,23.552 607.232,1.024 512,0 416.768,1.024 330.752,23.552 253.952,69.632 176.128,115.712 114.688,177.152 69.632,253.952 23.552,330.752 1.024,416.768 0,512 c 1.024,95.232 23.552,181.248 69.632,258.048 46.08,77.824 107.52,139.264 184.32,184.32 76.8,46.08 162.816,68.608 258.048,69.632 95.232,-1.024 181.248,-23.552 258.048,-69.632 77.824,-46.08 139.264,-107.52 184.32,-184.32 46.08,-76.8 68.608,-162.816 69.632,-258.048 z M 220.16,329.728 c 0,-19.456 7.168,-36.864 21.504,-51.2 13.312,-13.312 30.72,-20.48 51.2,-21.504 H 732.16 c 21.504,1.024 37.888,8.192 52.224,21.504 13.312,14.336 20.48,31.744 21.504,51.2 V 696.32 c -1.024,20.48 -8.192,36.864 -21.504,51.2 -14.336,13.312 -30.72,20.48 -52.224,21.504 H 292.864 C 272.384,768 254.976,760.832 241.664,747.52 227.328,733.184 220.16,716.8 220.16,696.32 Z m 128,110.592 c 15.36,-1.024 28.672,-6.144 38.912,-16.384 10.24,-10.24 15.36,-23.552 15.36,-38.912 0,-15.36 -6.144,-28.672 -15.36,-38.912 -11.264,-10.24 -23.552,-15.36 -38.912,-16.384 -14.336,1.024 -27.648,6.144 -38.912,16.384 -10.24,10.24 -15.36,23.552 -16.384,38.912 1.024,14.336 6.144,27.648 16.384,38.912 10.24,10.24 23.552,15.36 38.912,16.384 z m 242.688,12.288 c -7.168,-8.192 -14.336,-12.288 -22.528,-12.288 -10.24,0 -18.432,4.096 -23.552,12.288 L 445.44,598.016 415.744,560.128 c -7.168,-7.168 -14.336,-10.24 -21.504,-10.24 -8.192,0 -15.36,3.072 -21.504,10.24 l -73.728,91.136 c -4.096,5.12 -6.144,10.24 -6.144,16.384 0,4.096 1.024,8.192 3.072,12.288 5.12,10.24 13.312,15.36 24.576,16.384 h 384 c 11.264,0 19.456,-5.12 24.576,-15.36 2.048,-4.096 3.072,-8.192 3.072,-12.288 0,-5.12 -1.024,-10.24 -4.096,-15.36 z"
     fill="#000000"
     id="path1-6"
     style="stroke-width:1.024" />
</svg>
