<?xml version="1.0" encoding="UTF-8" standalone="no"?>
<svg
   viewBox="0 0 1048576 1048576"
   version="1.1"
   id="svg1"
   width="1048576"
   height="1048576"
   xmlns="http://www.w3.org/2000/svg"
   xmlns:svg="http://www.w3.org/2000/svg">
  <defs
     id="defs1" />
  <path
     d="M 149.00309,150.21487 C 49.6677,249.65289 0,370.24793 0,511.99999 0,653.75205 49.6677,774.3471 150.05986,873.78508 249.39525,974.28097 369.86584,1024 511.47162,1024 654.13419,1024 774.60474,974.28097 873.94014,873.78508 974.33224,774.3471 1024,653.75205 1024,511.99999 1024,370.24793 974.33224,249.65289 873.94014,149.15702 774.60474,49.719007 654.13419,0 511.47162,0 369.86584,0 249.39525,49.719007 149.00309,150.21487 Z M 584.38803,644.2314 370.9226,476.03305 166.96801,316.29752 c -6.34056,-5.28926 -9.51084,-11.63637 -9.51084,-17.98348 0,-5.28925 2.11352,-10.57851 5.2838,-15.86776 5.2838,-6.34711 11.62435,-9.52066 17.96491,-9.52066 5.2838,0 10.56759,2.1157 15.8514,5.28925 L 449.1228,476.03305 h 19.02168 v -60.29752 h -8.45408 c -48.61094,0 -82.42724,-32.79338 -102.50567,-99.43801 l -39.10011,-79.33885 c -10.56759,5.28926 -16.90815,8.46282 -20.07843,8.46282 -8.45407,-3.17356 -13.73787,-7.40497 -13.73787,-10.57852 v -3.17355 c 0,-13.75207 17.96491,-25.38843 53.89473,-37.0248 89.82457,-43.3719 138.4355,-65.58677 144.77606,-65.58677 h 2.11352 c 3.17028,0 7.39731,4.23141 11.62436,11.63637 0,9.52065 -6.34056,16.92561 -16.90815,22.21487 44.3839,94.14875 67.6326,149.15702 67.6326,165.02479 0,24.33058 -12.68111,48.66116 -35.92982,70.87603 v 77.22314 h 50.72446 v -25.38843 c 0,-4.2314 2.11351,-6.3471 5.2838,-6.3471 h 57.06501 c 3.17028,1.05785 5.2838,3.17355 5.2838,6.3471 v 25.38843 c 0,3.17355 25.36224,14.80992 73.97315,37.0248 v 76.16528 c 0,4.23141 -22.19196,15.86777 -66.57584,33.85124 l 158.51394,124.82644 c 6.3406,5.28926 9.5109,11.63636 9.5109,17.98347 0,5.28926 -2.1136,10.57852 -5.2838,15.86777 -5.2838,6.34711 -11.6244,9.52066 -19.0218,9.52066 -4.2269,0 -10.5675,-2.1157 -15.8513,-5.28926 z M 364.58204,498.24792 h -1.05676 c -6.34055,0 -8.45407,1.05785 -8.45407,3.17356 l -14.79463,-3.17356 h -25.36224 c -2.11351,0 -2.11351,1.05785 -2.11351,3.17356 l -6.34056,-3.17356 h -30.64603 c -2.11352,0 -3.17028,1.05785 -3.17028,3.17356 l -5.28379,-3.17356 h -9.51085 c -6.34055,0 -12.6811,3.17356 -16.90814,8.46282 2.11351,7.40496 5.2838,11.63635 8.45407,11.63635 h 122.58411 c 3.17027,0 5.2838,-2.11569 5.2838,-5.28924 v -4.23141 l 154.28689,120.59503 h -80.31372 v 53.95042 c 0,13.75206 -7.39732,22.21488 -22.19195,25.38843 -8.45408,-3.17355 -13.73788,-7.40496 -16.90816,-13.75207 v -65.58678 h -34.87306 v 79.33885 c 0,49.71901 -26.41899,88.8595 -79.25697,116.36367 -4.22704,2.1157 -7.39731,3.17355 -11.62436,3.17355 h -5.28379 c -28.53251,-3.17355 -42.27038,-17.98353 -42.27038,-42.31409 V 629.42147 H 221.9195 c -21.13519,0 -31.70278,-12.69421 -31.70278,-37.02479 v -79.33883 c 2.11351,-24.33058 11.62436,-37.0248 28.53251,-37.0248 h 117.3003 z m 490.3364,-82.51239 c 8.4541,4.23141 12.6811,8.46281 13.7379,11.63637 v 8.4628 c 0,7.40496 -43.3271,28.56199 -127.86794,65.58678 l -11.62436,-16.92562 c 0,-9.52067 41.2137,-31.73554 125.7544,-68.76033 z M 747.12904,609.3223 c 80.3137,37.0248 121.5273,59.23968 121.5273,65.58678 0,9.52066 -3.1703,15.86777 -8.4541,16.92562 h -8.4541 c -82.4272,-34.90909 -122.5841,-56.06612 -122.5841,-65.58678 0,-5.28925 5.28381,-11.63636 17.965,-16.92562 z m -6.34064,-67.70248 h 119.41384 c 5.2838,1.05785 8.4541,7.40496 8.4541,16.92563 v 2.1157 c -3.1703,7.40495 -11.6244,11.63636 -25.3622,11.63636 h -90.88138 c -14.79459,0 -22.19189,-5.28926 -23.24872,-16.92562 4.22707,-8.46281 7.39738,-12.69422 11.62436,-13.75207 z M 360.355,251.76859 c 8.45408,20.09918 14.79463,30.67769 20.07843,30.67769 76.08669,-8.46281 115.1868,-13.75207 116.24356,-16.92562 -23.24871,-41.2562 -33.81631,-62.41322 -33.81631,-65.58678 C 395.22807,226.38017 360.355,244.36363 360.355,251.76859 Z M 240.94118,552.19834 c 2.11351,4.23141 3.17027,7.40496 3.17027,8.46281 h 127.86791 c 3.17027,0 5.2838,-2.1157 5.2838,-5.28926 v -5.28925 c 0,-4.23141 -2.11353,-6.34711 -5.2838,-6.34711 H 249.39525 c -2.11352,0 -5.2838,3.17355 -8.45407,8.46281 z m 0,43.3719 c 2.11351,7.40496 5.2838,10.57851 8.45407,10.57851 h 114.13003 l 13.73788,-2.1157 v -11.63637 c 0,-3.17355 -2.11353,-5.28926 -5.2838,-5.28926 H 249.39525 Z"
     fill="#000000"
     id="path1-3"
     style="stroke-width:1.0573" />
</svg>
