<?xml version="1.0" encoding="UTF-8" standalone="no"?>
<svg
   viewBox="0 0 1048576 1048576"
   version="1.1"
   id="svg1"
   width="1048576"
   height="1048576"
   xmlns="http://www.w3.org/2000/svg"
   xmlns:svg="http://www.w3.org/2000/svg">
  <defs
     id="defs1" />
  <path
     d="M 1024,512 C 1022.976,416.768 1000.448,330.752 954.368,253.952 908.288,176.128 846.848,114.688 770.048,69.632 693.248,23.552 607.232,1.024 512,0 416.768,1.024 330.752,23.552 253.952,69.632 176.128,115.712 114.688,177.152 69.632,253.952 23.552,330.752 1.024,416.768 0,512 c 1.024,95.232 23.552,181.248 69.632,258.048 46.08,77.824 107.52,139.264 184.32,184.32 76.8,46.08 162.816,68.608 258.048,69.632 95.232,-1.024 181.248,-23.552 258.048,-69.632 77.824,-46.08 139.264,-107.52 184.32,-184.32 46.08,-76.8 68.608,-162.816 69.632,-258.048 z M 692.224,754.688 h 2.048 c 10.24,0 15.36,6.144 15.36,16.384 v 46.08 c 0,3.072 -3.072,5.12 -8.192,9.216 h -16.384 c -2.048,0 -5.12,-3.072 -8.192,-9.216 v -46.08 c 0,-10.24 5.12,-16.384 15.36,-16.384 z m -58.368,0 h 9.216 c 2.048,0 5.12,3.072 9.216,9.216 v 53.248 c 0,3.072 -3.072,5.12 -9.216,9.216 h -15.36 c -2.048,0 -5.12,-3.072 -9.216,-9.216 v -46.08 c 0,-10.24 5.12,-16.384 15.36,-16.384 z m -57.344,0 h 9.216 c 2.048,0 5.12,3.072 8.192,9.216 v 49.152 c 0,7.168 -2.048,12.288 -6.144,13.312 h -18.432 c -5.12,-2.048 -8.192,-7.168 -8.192,-15.36 v -39.936 c 0,-10.24 5.12,-16.384 15.36,-16.384 z m -62.464,0 h 13.312 c 7.168,4.096 11.264,11.264 11.264,22.528 v 28.672 c 0,12.288 -3.072,18.432 -9.216,20.48 H 512 c -6.144,-2.048 -9.216,-7.168 -9.216,-15.36 V 773.12 c 0,-8.192 4.096,-14.336 11.264,-18.432 z m -57.344,0 h 8.192 c 8.192,0 13.312,4.096 16.384,11.264 v 45.056 c 0,8.192 -3.072,13.312 -9.216,15.36 h -18.432 c -5.12,-2.048 -8.192,-8.192 -8.192,-20.48 V 773.12 c 0,-8.192 3.072,-14.336 11.264,-18.432 z m -58.368,0 h 9.216 c 10.24,0 15.36,6.144 15.36,16.384 v 39.936 c 0,8.192 -3.072,13.312 -9.216,15.36 h -11.264 c -8.192,0 -13.312,-4.096 -13.312,-13.312 v -49.152 c 0,-2.048 3.072,-5.12 9.216,-9.216 z m -51.2,0 h 2.048 c 10.24,0 15.36,6.144 15.36,16.384 v 46.08 c 0,3.072 -2.048,5.12 -8.192,9.216 h -11.264 c -9.216,0 -13.312,-4.096 -13.312,-13.312 v -49.152 c 2.048,-6.144 7.168,-9.216 15.36,-9.216 z m 422.912,-88.064 h 51.2 c 7.168,3.072 11.264,9.216 11.264,17.408 0,10.24 -5.12,15.36 -15.36,15.36 h -43.008 c -10.24,0 -15.36,-6.144 -15.36,-19.456 2.048,-6.144 6.144,-11.264 11.264,-13.312 z m -553.984,0 h 47.104 c 10.24,0 15.36,5.12 15.36,17.408 0,10.24 -5.12,15.36 -15.36,15.36 H 220.16 c -10.24,0 -15.36,-6.144 -15.36,-19.456 2.048,-6.144 6.144,-11.264 11.264,-13.312 z m 553.984,-58.368 h 51.2 c 7.168,4.096 11.264,10.24 11.264,17.408 -2.048,11.264 -5.12,16.384 -9.216,16.384 H 768 c -6.144,-2.048 -9.216,-9.216 -9.216,-20.48 2.048,-6.144 6.144,-10.24 11.264,-13.312 z m -553.984,0 h 51.2 c 7.168,4.096 11.264,10.24 11.264,17.408 -2.048,11.264 -5.12,16.384 -9.216,16.384 h -55.296 c -6.144,-2.048 -9.216,-9.216 -9.216,-20.48 2.048,-6.144 6.144,-10.24 11.264,-13.312 z m 561.152,-58.368 h 37.888 c 11.264,0 17.408,6.144 17.408,18.432 0,11.264 -7.168,17.408 -22.528,17.408 h -28.672 c -15.36,0 -22.528,-7.168 -22.528,-21.504 3.072,-9.216 9.216,-14.336 18.432,-14.336 z m -555.008,0 h 37.888 c 12.288,0 18.432,6.144 18.432,18.432 -2.048,11.264 -8.192,17.408 -18.432,17.408 V 583.68 L 256,585.728 h -22.528 c -19.456,0 -28.672,-6.144 -28.672,-19.456 v -2.048 c 3.072,-9.216 9.216,-14.336 17.408,-14.336 z M 643.072,496.64 h 13.312 c 7.168,4.096 11.264,10.24 11.264,18.432 0,11.264 -6.144,17.408 -17.408,17.408 -12.288,0 -18.432,-6.144 -18.432,-17.408 0,-8.192 4.096,-14.336 11.264,-18.432 z m 134.144,-4.096 h 37.888 c 11.264,0 17.408,6.144 17.408,17.408 0,8.192 -3.072,13.312 -9.216,16.384 H 768 c -4.096,0 -7.168,-6.144 -9.216,-18.432 0,-9.216 6.144,-14.336 18.432,-15.36 z m -555.008,0 h 37.888 c 12.288,0 18.432,6.144 18.432,17.408 -2.048,11.264 -5.12,16.384 -9.216,16.384 h -55.296 c -6.144,-2.048 -9.216,-9.216 -9.216,-20.48 3.072,-9.216 9.216,-13.312 17.408,-13.312 z m 169.984,-2.048 c 9.216,0 15.36,6.144 17.408,19.456 v 5.12 c -5.12,8.192 -11.264,13.312 -17.408,13.312 -12.288,-1.024 -18.432,-7.168 -18.432,-18.432 v -6.144 c 4.096,-6.144 9.216,-11.264 18.432,-13.312 z M 547.84,441.344 c 11.264,1.024 17.408,7.168 17.408,17.408 v 3.072 c -1.024,11.264 -6.144,17.408 -17.408,17.408 -10.24,0 -15.36,-7.168 -18.432,-20.48 4.096,-11.264 10.24,-17.408 18.432,-17.408 z m 229.376,-7.168 h 32.768 c 15.36,0 22.528,6.144 22.528,18.432 0,11.264 -6.144,17.408 -17.408,17.408 h -37.888 c -12.288,0 -18.432,-6.144 -18.432,-17.408 1.024,-12.288 7.168,-18.432 18.432,-18.432 z m -549.888,0 h 32.768 c 12.288,0 18.432,7.168 18.432,20.48 0,9.216 -6.144,14.336 -18.432,15.36 h -37.888 c -11.264,0 -17.408,-6.144 -17.408,-17.408 0,-12.288 7.168,-18.432 22.528,-18.432 z M 768,378.88 h 55.296 c 6.144,2.048 9.216,9.216 9.216,20.48 -3.072,8.192 -9.216,13.312 -17.408,13.312 h -37.888 c -12.288,0 -18.432,-7.168 -18.432,-20.48 3.072,-9.216 6.144,-13.312 9.216,-13.312 z m -553.984,0 h 55.296 c 6.144,2.048 9.216,9.216 9.216,20.48 -3.072,8.192 -9.216,13.312 -18.432,13.312 h -37.888 c -11.264,0 -17.408,-6.144 -17.408,-18.432 2.048,-10.24 5.12,-15.36 9.216,-15.36 z m 237.568,-22.528 h 2.048 c 12.288,0 18.432,7.168 18.432,20.48 -3.072,7.168 -7.168,12.288 -13.312,15.36 h -5.12 c -11.264,0 -17.408,-6.144 -17.408,-17.408 v -2.048 c 0,-11.264 5.12,-16.384 15.36,-16.384 z m 320.512,-37.888 5.12,3.072 h 46.08 c 6.144,2.048 9.216,8.192 9.216,19.456 -3.072,9.216 -9.216,13.312 -17.408,13.312 h -45.056 c -7.168,-4.096 -11.264,-9.216 -11.264,-17.408 0,-8.192 5.12,-14.336 13.312,-18.432 z m -551.936,0 5.12,3.072 h 32.768 c 2.048,0 2.048,-1.024 2.048,-3.072 12.288,0 18.432,8.192 18.432,22.528 -2.048,6.144 -6.144,10.24 -11.264,13.312 h -45.056 c -11.264,0 -17.408,-6.144 -17.408,-17.408 0,-9.216 5.12,-15.36 15.36,-18.432 z m 122.88,-23.552 h 353.28 c 31.744,0 47.104,15.36 47.104,46.08 v 354.304 c 0,30.72 -17.408,46.08 -51.2,46.08 H 614.4 c -3.072,0 -4.096,-1.024 -4.096,-4.096 V 566.272 c 7.168,-10.24 14.336,-17.408 21.504,-20.48 6.144,3.072 11.264,4.096 18.432,4.096 23.552,-3.072 34.816,-14.336 34.816,-34.816 -3.072,-23.552 -14.336,-35.84 -30.72,-35.84 h -9.216 c -20.48,6.144 -30.72,16.384 -30.72,30.72 v 16.384 c -19.456,15.36 -28.672,26.624 -28.672,34.816 V 737.28 c 0,3.072 -2.048,4.096 -5.12,4.096 h -15.36 c -3.072,0 -4.096,-1.024 -4.096,-4.096 V 496.64 c 14.336,-12.288 21.504,-22.528 21.504,-30.72 v -11.264 c 0,-15.36 -11.264,-25.6 -34.816,-30.72 -19.456,0 -30.72,12.288 -35.84,37.888 0,13.312 7.168,23.552 22.528,30.72 v 17.408 c 0,2.048 0,3.072 2.048,3.072 l -2.048,4.096 v 11.264 c 0,1.024 0,2.048 2.048,2.048 0,1.024 -1.024,2.048 -2.048,2.048 l 2.048,26.624 V 737.28 c 0,3.072 -2.048,4.096 -4.096,4.096 h -16.384 c -3.072,0 -4.096,-1.024 -4.096,-4.096 V 521.216 c 0,-8.192 -15.36,-27.648 -47.104,-57.344 v -53.248 c 16.384,-11.264 24.576,-23.552 24.576,-35.84 -4.096,-23.552 -14.336,-35.84 -30.72,-35.84 h -7.168 c -21.504,3.072 -32.768,13.312 -32.768,28.672 v 11.264 c 0,9.216 7.168,19.456 21.504,31.744 v 53.248 c 0,12.288 12.288,27.648 35.84,46.08 7.168,6.144 11.264,18.432 11.264,35.84 v 185.344 l -2.048,10.24 h -18.432 c -2.048,0 -4.096,-1.024 -4.096,-4.096 V 568.32 c 0,-12.288 -9.216,-25.6 -28.672,-39.936 -5.12,-6.144 -8.192,-9.216 -9.216,-9.216 l 2.048,-4.096 v -5.12 C 423.936,486.4 412.672,475.136 394.24,475.136 h -9.216 c -14.336,0 -23.552,10.24 -28.672,30.72 v 9.216 c 0,16.384 12.288,27.648 37.888,30.72 9.216,-3.072 16.384,-4.096 19.456,-4.096 16.384,15.36 24.576,26.624 24.576,32.768 v 13.312 c 0,4.096 -1.024,7.168 -2.048,9.216 1.024,3.072 2.048,5.12 2.048,7.168 h -2.048 l 2.048,4.096 v 122.88 l -2.048,10.24 h -89.088 c -32.768,-1.024 -49.152,-12.288 -49.152,-32.768 V 327.68 c 0,-19.456 15.36,-30.72 45.056,-32.768 z M 685.056,209.92 h 16.384 c 2.048,0 5.12,3.072 8.192,9.216 v 46.08 c 0,10.24 -5.12,15.36 -15.36,15.36 h -2.048 c -8.192,0 -13.312,-2.048 -15.36,-8.192 v -53.248 c 0,-3.072 3.072,-6.144 8.192,-9.216 z m -57.344,0 h 15.36 c 2.048,0 5.12,3.072 9.216,9.216 v 53.248 c -2.048,6.144 -8.192,8.192 -15.36,8.192 h -3.072 c -10.24,0 -15.36,-5.12 -15.36,-15.36 v -46.08 c 0,-3.072 3.072,-6.144 9.216,-9.216 z m -58.368,0 h 11.264 c 9.216,0 13.312,4.096 13.312,13.312 v 49.152 c 0,2.048 -3.072,5.12 -8.192,8.192 h -9.216 c -10.24,0 -15.36,-5.12 -15.36,-15.36 V 225.28 c 0,-8.192 3.072,-13.312 8.192,-15.36 z m -57.344,0 h 11.264 c 10.24,0 15.36,6.144 15.36,17.408 v 31.744 c 0,11.264 -4.096,18.432 -11.264,21.504 h -13.312 c -7.168,-3.072 -11.264,-9.216 -11.264,-17.408 v -33.792 c 0,-11.264 3.072,-17.408 9.216,-19.456 z m -51.2,0 h 11.264 c 6.144,2.048 9.216,7.168 9.216,15.36 v 45.056 c -3.072,7.168 -8.192,10.24 -16.384,10.24 h -8.192 c -8.192,-3.072 -11.264,-9.216 -11.264,-17.408 v -33.792 c 0,-13.312 5.12,-19.456 15.36,-19.456 z m -58.368,0 h 11.264 c 6.144,2.048 9.216,7.168 9.216,15.36 v 39.936 c 0,10.24 -5.12,15.36 -15.36,15.36 h -2.048 c -8.192,0 -13.312,-2.048 -16.384,-8.192 v -49.152 c 0,-9.216 5.12,-13.312 13.312,-13.312 z m -61.44,0 h 15.36 c 2.048,0 5.12,3.072 8.192,9.216 v 46.08 c 0,10.24 -5.12,15.36 -15.36,15.36 h -2.048 c -8.192,0 -13.312,-2.048 -15.36,-8.192 v -53.248 c 0,-3.072 3.072,-6.144 9.216,-9.216 z"
     fill="#000000"
     id="path1"
     style="stroke-width:1.024" />
</svg>
