<?xml version="1.0" encoding="UTF-8" standalone="no"?>
<svg
   viewBox="0 0 1048576 1048576"
   version="1.1"
   id="svg1"
   width="1048576"
   height="1048576"
   xmlns="http://www.w3.org/2000/svg"
   xmlns:svg="http://www.w3.org/2000/svg">
  <defs
     id="defs1" />
  <path
     d="M 1024,512 C 1022.976,416.768 1000.448,330.752 954.368,253.952 908.288,176.128 846.848,114.688 770.048,69.632 693.248,23.552 607.232,1.024 512,0 416.768,1.024 330.752,23.552 253.952,69.632 176.128,115.712 114.688,177.152 69.632,253.952 23.552,330.752 1.024,416.768 0,512 c 1.024,95.232 23.552,181.248 69.632,258.048 46.08,77.824 107.52,139.264 184.32,184.32 76.8,46.08 162.816,68.608 258.048,69.632 95.232,-1.024 181.248,-23.552 258.048,-69.632 77.824,-46.08 139.264,-107.52 184.32,-184.32 46.08,-76.8 68.608,-162.816 69.632,-258.048 z m -704.512,58.368 c 26.624,23.552 39.936,35.84 39.936,36.864 -7.168,9.216 -39.936,45.056 -98.304,107.52 -14.336,-12.288 -27.648,-24.576 -39.936,-36.864 v -1.024 z m 287.744,-41.984 v 27.648 c -6.144,4.096 -9.216,8.192 -9.216,13.312 1.024,8.192 5.12,12.288 11.264,12.288 8.192,-1.024 12.288,-5.12 12.288,-11.264 v -2.048 c -1.024,-7.168 -4.096,-10.24 -8.192,-10.24 v -29.696 h 63.488 v 21.504 c -5.12,5.12 -8.192,9.216 -8.192,12.288 v 3.072 c 0,3.072 3.072,7.168 8.192,11.264 v 9.216 l -4.096,1.024 h -20.48 c -1.024,0 -2.048,-1.024 -3.072,-2.048 v -12.288 c 6.144,-4.096 9.216,-8.192 9.216,-13.312 v -1.024 c 0,-6.144 -4.096,-9.216 -12.288,-10.24 -8.192,1.024 -11.264,5.12 -11.264,11.264 v 1.024 c 0,4.096 3.072,8.192 9.216,12.288 v 12.288 c 0,1.024 -1.024,1.024 -2.048,1.024 h -10.24 c -4.096,0 -6.144,2.048 -6.144,6.144 v 30.72 h -1.024 l 1.024,2.048 v 76.8 c 0,1.024 1.024,2.048 3.072,3.072 h 13.312 c 1.024,0 2.048,1.024 2.048,2.048 v 46.08 l -1.024,4.096 H 558.08 c -13.312,0 -20.48,-5.12 -22.528,-17.408 v -29.696 l -1.024,-12.288 h 39.936 c 3.072,0 8.192,4.096 15.36,13.312 6.144,4.096 9.216,7.168 9.216,9.216 l -1.024,5.12 c 0,6.144 3.072,10.24 11.264,12.288 8.192,-1.024 12.288,-5.12 12.288,-11.264 v -2.048 c -1.024,-7.168 -4.096,-10.24 -10.24,-10.24 l -10.24,1.024 C 587.776,698.368 580.608,691.2 579.584,691.2 h -44.032 v -25.6 h 43.008 c 3.072,6.144 7.168,9.216 11.264,9.216 h 2.048 c 6.144,0 9.216,-4.096 10.24,-13.312 -1.024,-7.168 -5.12,-11.264 -11.264,-11.264 -4.096,0 -9.216,3.072 -13.312,10.24 h -41.984 c 0,-2.048 0,-2.048 -1.024,-2.048 l 1.024,-2.048 v -61.44 h 48.128 c 0,5.12 4.096,8.192 12.288,9.216 7.168,-2.048 11.264,-6.144 11.264,-12.288 v -1.024 c 0,-6.144 -4.096,-10.24 -12.288,-11.264 -4.096,0 -8.192,3.072 -13.312,9.216 h -46.08 v -44.032 c 3.072,-11.264 8.192,-16.384 16.384,-16.384 z M 593.92,240.64 h 5.12 c 26.624,0 47.104,14.336 59.392,43.008 2.048,6.144 3.072,12.288 3.072,17.408 v 7.168 c 0,18.432 -12.288,38.912 -37.888,62.464 l -158.72,174.08 h -1.024 C 404.48,491.52 373.76,462.848 370.688,458.752 v -1.024 l 184.32,-200.704 c 12.288,-11.264 25.6,-16.384 38.912,-16.384 z m 56.32,463.872 h 24.576 c 2.048,0 2.048,1.024 2.048,2.048 v 14.336 c -4.096,0 -7.168,4.096 -8.192,12.288 v 1.024 c 0,3.072 3.072,7.168 8.192,11.264 v 9.216 c 0,2.048 0,2.048 -2.048,2.048 h -22.528 c -2.048,0 -2.048,0 -2.048,-2.048 z m -428.032,-7.168 c 11.264,8.192 17.408,14.336 20.48,18.432 -39.936,31.744 -61.44,47.104 -63.488,47.104 v -1.024 z m 367.616,-73.728 v 3.072 c 0,6.144 4.096,10.24 13.312,11.264 3.072,0 6.144,-3.072 10.24,-10.24 l 4.096,-1.024 4.096,1.024 c 0,-1.024 1.024,-2.048 1.024,-4.096 -6.144,0 -10.24,-2.048 -12.288,-7.168 -3.072,-2.048 -6.144,-3.072 -8.192,-3.072 h -2.048 c -6.144,2.048 -10.24,5.12 -10.24,10.24 z m 67.584,-31.744 h 69.632 c 1.024,0 2.048,1.024 2.048,2.048 v 104.448 h -95.232 c -2.048,0 -2.048,0 -2.048,-1.024 V 592.896 c 11.264,-1.024 20.48,-1.024 25.6,-1.024 z m -414.72,84.992 c 0,1.024 1.024,1.024 2.048,2.048 h 3.072 c 51.2,-52.224 75.776,-79.872 75.776,-81.92 -1.024,-3.072 -2.048,-5.12 -4.096,-5.12 -3.072,0 -11.264,8.192 -23.552,23.552 -35.84,36.864 -53.248,56.32 -53.248,59.392 z m 440.32,-148.48 h 119.808 c 9.216,0 15.36,6.144 17.408,18.432 v 21.504 c 0,2.048 -1.024,2.048 -2.048,2.048 h -47.104 c 0,-4.096 -3.072,-7.168 -10.24,-8.192 -8.192,0 -12.288,4.096 -12.288,13.312 0,6.144 4.096,9.216 12.288,10.24 4.096,0 8.192,-3.072 12.288,-9.216 h 45.056 c 1.024,0 2.048,1.024 2.048,2.048 v 28.672 h -50.176 c 0,-4.096 -3.072,-7.168 -10.24,-8.192 h -2.048 c -7.168,1.024 -10.24,5.12 -10.24,12.288 1.024,8.192 5.12,11.264 11.264,11.264 4.096,0 9.216,-3.072 13.312,-9.216 h 46.08 c 1.024,0 2.048,1.024 2.048,2.048 v 54.272 h -39.936 l -20.48,-19.456 c 1.024,-5.12 2.048,-8.192 2.048,-9.216 -2.048,-6.144 -6.144,-10.24 -12.288,-10.24 -8.192,0 -12.288,4.096 -12.288,12.288 2.048,8.192 5.12,12.288 12.288,12.288 1.024,0 3.072,-1.024 6.144,-2.048 l 21.504,22.528 h 40.96 c 1.024,0 2.048,1.024 2.048,2.048 v 23.552 c 0,2.048 -1.024,2.048 -2.048,2.048 h -41.984 c -4.096,-6.144 -7.168,-8.192 -10.24,-8.192 h -4.096 c -7.168,1.024 -11.264,5.12 -11.264,11.264 0,7.168 5.12,10.24 13.312,11.264 h 1.024 c 3.072,0 7.168,-2.048 11.264,-8.192 h 44.032 v 27.648 c 0,12.288 -8.192,18.432 -23.552,19.456 h -60.416 c -1.024,0 -2.048,0 -4.096,-1.024 -1.024,1.024 -2.048,1.024 -3.072,1.024 h -9.216 c -1.024,0 -2.048,-1.024 -3.072,-3.072 0,-4.096 2.048,-7.168 7.168,-9.216 2.048,-3.072 3.072,-6.144 3.072,-8.192 -1.024,-8.192 -5.12,-12.288 -11.264,-12.288 h -4.096 c -6.144,3.072 -9.216,7.168 -9.216,11.264 0,5.12 3.072,10.24 9.216,14.336 v 7.168 h -26.624 c -1.024,0 -2.048,0 -2.048,-2.048 v -9.216 c 6.144,-4.096 10.24,-8.192 10.24,-12.288 0,-6.144 -4.096,-10.24 -10.24,-12.288 v -16.384 h 48.128 c 1.024,0 2.048,-1.024 3.072,-3.072 V 588.8 c 0,-2.048 -2.048,-3.072 -5.12,-3.072 H 716.8 v -24.576 c 0,-3.072 3.072,-6.144 8.192,-9.216 l 2.048,-6.144 c -1.024,-9.216 -5.12,-13.312 -12.288,-13.312 h -1.024 c -7.168,2.048 -11.264,6.144 -11.264,12.288 1.024,7.168 4.096,11.264 9.216,11.264 v 29.696 h -28.672 v -9.216 c 6.144,-4.096 9.216,-8.192 9.216,-11.264 v -3.072 c -2.048,-7.168 -5.12,-10.24 -9.216,-10.24 z m -356.352,-2.048 h 2.048 c 49.152,44.032 73.728,65.536 73.728,66.56 v 2.048 c -7.168,9.216 -12.288,13.312 -16.384,13.312 -5.12,0 -16.384,-7.168 -30.72,-22.528 -26.624,-23.552 -38.912,-35.84 -38.912,-37.888 v -3.072 c 0,-5.12 3.072,-11.264 10.24,-17.408 z m 20.48,-64.512 c 6.144,0 17.408,8.192 31.744,23.552 47.104,41.984 75.776,67.584 83.968,76.8 1.024,4.096 2.048,7.168 2.048,8.192 v 4.096 c 0,5.12 -6.144,13.312 -18.432,23.552 -3.072,1.024 -5.12,2.048 -8.192,2.048 H 435.2 c -5.12,0 -13.312,-6.144 -23.552,-16.384 -60.416,-54.272 -91.136,-82.944 -91.136,-83.968 0,-1.024 0,-4.096 -1.024,-8.192 0,-9.216 7.168,-18.432 21.504,-28.672 z m 242.688,-46.08 h 2.048 c 1.024,0 2.048,2.048 5.12,8.192 0,3.072 -16.384,20.48 -49.152,54.272 0,3.072 -4.096,7.168 -11.264,12.288 -7.168,-1.024 -11.264,-3.072 -11.264,-4.096 22.528,-24.576 43.008,-48.128 62.464,-68.608 1.024,0 2.048,-1.024 2.048,-2.048 z m -157.696,7.168 c 0,1.024 2.048,2.048 4.096,4.096 h 2.048 c 4.096,-2.048 30.72,-30.72 79.872,-84.992 39.936,-44.032 61.44,-65.536 63.488,-65.536 3.072,-2.048 8.192,-3.072 16.384,-5.12 l 1.024,-2.048 v -1.024 c 0,-3.072 -2.048,-5.12 -6.144,-5.12 -9.216,0 -18.432,4.096 -26.624,12.288 l -133.12,143.36 c 0,1.024 -1.024,3.072 -1.024,4.096 z m 260.096,-209.92 c 25.6,0 45.056,14.336 57.344,41.984 1.024,8.192 2.048,15.36 2.048,21.504 v 146.432 c 0,6.144 -3.072,9.216 -10.24,9.216 -6.144,-2.048 -9.216,-5.12 -9.216,-10.24 v -143.36 c 0,-21.504 -9.216,-35.84 -29.696,-44.032 -3.072,0 -6.144,-1.024 -9.216,-1.024 h -5.12 c -4.096,0 -9.216,1.024 -14.336,3.072 v 5.12 C 664.576,250.88 660.48,256 660.48,257.024 h -1.024 c -3.072,-4.096 -10.24,-9.216 -19.456,-17.408 v -1.024 c 9.216,-10.24 14.336,-15.36 16.384,-15.36 2.048,0 7.168,-2.048 16.384,-7.168 5.12,-2.048 11.264,-3.072 19.456,-3.072 z"
     fill="#000000"
     id="path1-8"
     style="stroke-width:1.024" />
</svg>
