<?xml version="1.0" encoding="UTF-8" standalone="no"?>
<svg
   viewBox="0 0 1048576 1048576"
   version="1.1"
   id="svg1"
   width="1048576"
   height="1048576"
   xmlns="http://www.w3.org/2000/svg"
   xmlns:svg="http://www.w3.org/2000/svg">
  <defs
     id="defs1" />
  <path
     d="M 149.00309,150.21487 C 49.667697,249.65288 0,370.24792 0,511.99998 0,653.75204 49.667697,774.34708 150.05985,873.78509 249.39524,974.28095 369.86583,1024 511.4716,1024 654.13413,1024 774.60471,974.28095 873.94011,873.78509 974.33226,774.34708 1024,653.75204 1024,511.99998 1024,370.24792 974.33226,249.65288 873.94011,149.15702 774.60471,49.719006 654.13413,-8.0000007e-7 511.4716,-8.0000007e-7 369.86583,-8.0000007e-7 249.39524,49.719006 149.00309,150.21487 Z m 491.39317,311.00825 c -16.90815,-1.05785 -27.47575,-9.52066 -33.81631,-24.33058 -3.17028,-5.28925 -4.22703,-10.57851 -4.22703,-15.86776 0,-9.52066 4.22703,-17.98347 10.56759,-26.44628 l 67.63261,-65.58678 c -52.83798,-49.719 -114.13003,-74.04958 -181.76264,-74.04958 -66.57584,0 -126.81114,25.38843 -179.64911,76.16528 -50.72446,51.83471 -76.08669,112.13223 -76.08669,181.95041 0,68.76033 25.36223,129.05785 76.08669,180.89256 52.83797,50.77685 113.07327,76.16528 179.64911,76.16528 67.63261,0 128.92466,-25.38843 181.76264,-76.16528 10.56759,-9.52066 23.24871,-14.80992 38.04334,-14.80992 13.73787,0 25.36223,5.28926 35.92982,14.80992 9.51084,10.57851 14.79464,23.27272 14.79464,37.02479 v 2.1157 c 0,11.63636 -5.2838,23.27273 -14.79464,33.85124 -48.61093,47.6033 -103.56243,78.28099 -162.74096,94.14876 -31.70279,7.40495 -61.29205,11.63636 -91.93808,11.63636 -30.64602,0 -61.29205,-4.23141 -91.93807,-11.63636 C 346.61712,845.22311 292.72238,814.54542 245.1682,766.94212 198.67079,719.33882 166.968,664.33055 152.17337,604.03303 c -8.45408,-30.67768 -11.62436,-60.29751 -11.62436,-90.9752 0,-30.67768 3.17028,-61.35537 11.62436,-92.03305 14.79463,-61.35537 46.49742,-115.30578 92.99483,-162.90909 48.61094,-47.6033 102.50568,-78.28099 162.74097,-94.14875 30.64602,-7.40496 60.23529,-10.57852 90.88131,-10.57852 29.58927,0 60.2353,3.17356 90.88132,10.57852 61.29205,14.80991 115.18679,45.4876 162.74096,93.0909 l 67.63261,-67.70248 c 7.39732,-7.40495 15.85139,-10.57851 24.30547,-10.57851 5.2838,0 10.5676,1.05785 15.85139,3.17356 15.8514,6.3471 24.30547,17.98347 25.36223,35.96694 v 205.22313 c -2.11352,22.21487 -15.85139,34.90909 -40.15686,38.08264 z"
     fill="#000000"
     id="path1-27"
     style="stroke-width:1.05731" />
</svg>
