<?xml version="1.0" encoding="UTF-8" standalone="no"?>
<svg
   viewBox="0 0 1048576 1048576"
   version="1.1"
   id="svg1"
   sodipodi:docname="11111.svg"
   inkscape:export-filename="uE9D8.svg"
   inkscape:export-xdpi="96"
   inkscape:export-ydpi="96"
   width="1048576"
   height="1048576"
   xmlns:inkscape="http://www.inkscape.org/namespaces/inkscape"
   xmlns:sodipodi="http://sodipodi.sourceforge.net/DTD/sodipodi-0.dtd"
   xmlns="http://www.w3.org/2000/svg"
   xmlns:svg="http://www.w3.org/2000/svg">
  <defs
     id="defs1" />
  <sodipodi:namedview
     id="namedview1"
     pagecolor="#ffffff"
     bordercolor="#000000"
     borderopacity="0.25"
     inkscape:showpageshadow="2"
     inkscape:pageopacity="0.0"
     inkscape:pagecheckerboard="0"
     inkscape:deskcolor="#d1d1d1">
    <inkscape:page
       x="0"
       y="0"
       width="1048576"
       height="1048576"
       id="page2"
       margin="0"
       bleed="0" />
  </sodipodi:namedview>
  <path
     d="M 1024,512 C 1022.976,416.768 1000.448,330.752 954.368,253.952 908.288,176.128 846.848,114.688 770.048,69.632 693.248,23.552 607.232,1.024 512,0 416.768,1.024 330.752,23.552 253.952,69.632 176.128,115.712 114.688,177.152 69.632,253.952 23.552,330.752 1.024,416.768 0,512 c 1.024,95.232 23.552,181.248 69.632,258.048 46.08,77.824 107.52,139.264 184.32,184.32 76.8,46.08 162.816,68.608 258.048,69.632 95.232,-1.024 181.248,-23.552 258.048,-69.632 77.824,-46.08 139.264,-107.52 184.32,-184.32 46.08,-76.8 68.608,-162.816 69.632,-258.048 z M 584.704,718.848 c 1.024,0 2.048,5.12 2.048,15.36 -10.24,3.072 -15.36,4.096 -17.408,4.096 v -1.024 c 0,-1.024 5.12,-7.168 15.36,-18.432 z M 414.72,650.24 c 9.216,31.744 24.576,60.416 47.104,87.04 v 1.024 C 427.008,732.16 390.144,714.752 350.208,686.08 v -5.12 c 32.768,-21.504 54.272,-31.744 64.512,-31.744 z m 102.4,-18.432 c 1.024,0 17.408,1.024 48.128,3.072 l 13.312,57.344 c -22.528,34.816 -43.008,52.224 -63.488,52.224 -27.648,0 -53.248,-27.648 -74.752,-82.944 -4.096,-10.24 -6.144,-16.384 -6.144,-18.432 26.624,-7.168 54.272,-11.264 82.944,-11.264 z m 60.416,-30.72 c 109.568,26.624 168.96,41.984 177.152,45.056 2.048,0 3.072,1.024 3.072,3.072 v 3.072 c -1.024,2.048 -18.432,11.264 -52.224,25.6 -4.096,0 -6.144,3.072 -6.144,9.216 0,2.048 27.648,31.744 84.992,88.064 -20.48,19.456 -30.72,30.72 -30.72,32.768 h -3.072 c -56.32,-55.296 -86.016,-83.968 -88.064,-84.992 -7.168,0 -15.36,15.36 -25.6,45.056 -5.12,9.216 -8.192,13.312 -9.216,13.312 h -4.096 c -3.072,0 -11.264,-28.672 -23.552,-88.064 -3.072,-7.168 -10.24,-37.888 -22.528,-92.16 z M 414.72,548.864 h 200.704 v 1.024 c 0,9.216 -1.024,21.504 -4.096,38.912 -30.72,-7.168 -48.128,-11.264 -52.224,-11.264 l -5.12,6.144 v 2.048 c 0,7.168 2.048,17.408 6.144,29.696 -26.624,-2.048 -41.984,-3.072 -46.08,-3.072 -18.432,0 -47.104,3.072 -87.04,10.24 v -1.024 C 419.84,592.896 415.744,568.32 414.72,548.864 Z m 307.2,-55.296 h 53.248 v 3.072 c 0,41.984 -13.312,82.944 -38.912,122.88 -45.056,-10.24 -79.872,-18.432 -105.472,-26.624 0,-4.096 2.048,-19.456 6.144,-44.032 h 63.488 C 714.752,546.816 721.92,537.6 721.92,522.24 Z m -465.92,0 h 52.224 v 31.744 c 2.048,15.36 9.216,23.552 23.552,23.552 h 61.44 c 4.096,27.648 9.216,55.296 14.336,81.92 h -2.048 c -23.552,8.192 -47.104,20.48 -68.608,36.864 0,2.048 -1.024,3.072 -3.072,3.072 -46.08,-51.2 -71.68,-101.376 -75.776,-151.552 C 257.024,514.048 256,507.904 256,499.712 Z m 333.824,-50.176 h 13.312 l 11.264,47.104 c 2.048,0 5.12,-12.288 10.24,-35.84 3.072,-7.168 5.12,-11.264 6.144,-11.264 h 8.192 c 3.072,4.096 8.192,19.456 15.36,48.128 h 2.048 c 6.144,-31.744 10.24,-48.128 12.288,-48.128 h 12.288 v 2.048 c 0,2.048 -6.144,27.648 -17.408,76.8 h -15.36 l -12.288,-48.128 h -2.048 c -5.12,18.432 -9.216,34.816 -12.288,48.128 h -15.36 c -11.264,-46.08 -16.384,-72.704 -16.384,-78.848 z m -117.76,0 h 12.288 l 9.216,48.128 c 3.072,-2.048 8.192,-17.408 15.36,-48.128 h 12.288 c 9.216,31.744 14.336,48.128 16.384,48.128 l 9.216,-48.128 h 15.36 c -11.264,53.248 -17.408,78.848 -20.48,78.848 H 529.408 L 517.12,476.16 h -3.072 L 501.76,522.24 H 486.4 l -17.408,-76.8 z m -121.856,0 h 12.288 c 2.048,0 6.144,15.36 12.288,47.104 2.048,0 7.168,-16.384 14.336,-47.104 h 10.24 c 3.072,0 8.192,15.36 15.36,47.104 h 2.048 c 7.168,-30.72 10.24,-46.08 10.24,-47.104 h 14.336 v 2.048 c 0,3.072 -5.12,28.672 -17.408,76.8 h -15.36 l -12.288,-48.128 h -1.024 c -8.192,29.696 -13.312,46.08 -15.36,48.128 h -14.336 z m 76.8,-100.352 c 27.648,7.168 56.32,11.264 87.04,11.264 h 9.216 c 23.552,0 50.176,-4.096 79.872,-11.264 8.192,34.816 12.288,59.392 12.288,74.752 H 414.72 v -2.048 c 0,-12.288 4.096,-36.864 12.288,-72.704 z M 696.32,296.96 c 24.576,24.576 41.984,47.104 50.176,67.584 19.456,37.888 28.672,71.68 28.672,102.4 v 6.144 H 721.92 v -26.624 c 0,-19.456 -9.216,-28.672 -28.672,-28.672 h -6.144 c -1.024,0 -2.048,0 -2.048,1.024 l -3.072,-1.024 h -22.528 l -3.072,1.024 c 0,-1.024 -1.024,-1.024 -2.048,-1.024 v 1.024 l -3.072,-1.024 h -9.216 l -3.072,1.024 c -2.048,-4.096 -6.144,-24.576 -11.264,-61.44 -1.024,0 -2.048,-7.168 -4.096,-20.48 20.48,-5.12 45.056,-18.432 72.704,-39.936 z m -361.472,0 c 17.408,15.36 41.984,28.672 72.704,41.984 -6.144,27.648 -11.264,53.248 -14.336,78.848 h -52.224 c -21.504,0 -32.768,7.168 -32.768,21.504 v 33.792 H 256 v -6.144 c 0,-53.248 22.528,-106.496 68.608,-160.768 z m 234.496,-67.584 h 2.048 c 40.96,9.216 77.824,26.624 109.568,54.272 -17.408,15.36 -38.912,26.624 -63.488,33.792 -14.336,-38.912 -29.696,-68.608 -48.128,-88.064 z m -107.52,0 c -23.552,26.624 -38.912,56.32 -47.104,88.064 -21.504,-5.12 -43.008,-16.384 -64.512,-33.792 29.696,-26.624 66.56,-45.056 111.616,-54.272 z m 53.248,-6.144 c 32.768,0 59.392,33.792 81.92,101.376 h -1.024 c -27.648,6.144 -54.272,9.216 -78.848,9.216 -26.624,0 -54.272,-3.072 -82.944,-9.216 22.528,-67.584 49.152,-101.376 80.896,-101.376 z m -6.144,-38.912 h 18.432 c 57.344,0 115.712,21.504 175.104,64.512 74.752,63.488 112.64,143.36 112.64,241.664 0,41.984 -12.288,88.064 -36.864,138.24 -14.336,-3.072 -21.504,-5.12 -21.504,-6.144 24.576,-44.032 36.864,-87.04 36.864,-129.024 v -20.48 C 793.6,394.24 757.76,323.584 685.056,261.12 632.832,223.232 575.488,204.8 515.072,204.8 c -93.184,0 -171.008,40.96 -231.424,122.88 -30.72,49.152 -46.08,97.28 -46.08,145.408 v 17.408 c 0,51.2 16.384,101.376 48.128,149.504 17.408,25.6 38.912,47.104 64.512,66.56 18.432,14.336 40.96,26.624 64.512,36.864 35.84,12.288 68.608,18.432 100.352,18.432 25.6,0 51.2,-4.096 75.776,-11.264 v 2.048 c 2.048,3.072 3.072,9.216 3.072,19.456 -26.624,6.144 -47.104,9.216 -61.44,9.216 h -29.696 c -65.536,0 -130.048,-25.6 -191.488,-77.824 C 247.808,641.024 216.064,566.272 216.064,480.256 216.064,389.12 256,310.272 334.848,244.736 390.144,204.8 448.512,184.32 508.928,184.32 Z"
     fill="#000000"
     id="path1"
     style="stroke-width:1.024" />
</svg>
