<?xml version="1.0" encoding="UTF-8" standalone="no"?>
<svg
   viewBox="0 0 1048576 1048576"
   version="1.1"
   id="svg1"
   width="1048576"
   height="1048576"
   xmlns="http://www.w3.org/2000/svg"
   xmlns:svg="http://www.w3.org/2000/svg">
  <defs
     id="defs1" />
  <path
     d="m 512,1024 c 95.232,-1.024 181.248,-23.552 258.048,-69.632 76.8,-45.056 138.24,-106.496 184.32,-184.32 C 1000.448,693.248 1022.976,607.232 1024,512 1022.976,416.768 1000.448,330.752 954.368,253.952 909.312,177.152 847.872,115.712 770.048,69.632 693.248,23.552 607.232,1.024 512,0 416.768,1.024 330.752,23.552 253.952,69.632 177.152,114.688 115.712,176.128 69.632,253.952 23.552,330.752 1.024,416.768 0,512 c 1.024,95.232 23.552,181.248 69.632,258.048 45.056,76.8 106.496,138.24 184.32,184.32 76.8,46.08 162.816,68.608 258.048,69.632 z m 63.488,-320.512 c 0,17.408 -6.144,32.768 -17.408,46.08 C 545.792,761.856 530.432,768 512,768 c -18.432,0 -33.792,-6.144 -46.08,-18.432 -11.264,-13.312 -17.408,-28.672 -17.408,-46.08 0,-18.432 6.144,-33.792 17.408,-45.056 C 478.208,646.144 493.568,640 512,640 c 18.432,0 33.792,6.144 46.08,18.432 11.264,13.312 17.408,27.648 17.408,45.056 z m -235.52,-373.76 c 8.192,-21.504 21.504,-39.936 39.936,-53.248 19.456,-13.312 40.96,-20.48 66.56,-20.48 h 115.712 c 35.84,1.024 66.56,13.312 90.112,37.888 22.528,23.552 34.816,52.224 35.84,88.064 -1.024,47.104 -22.528,83.968 -64.512,109.568 l -63.488,36.864 C 557.056,558.08 541.696,573.44 512,576.512 482.304,573.44 466.944,558.08 463.872,528.384 V 501.76 c 0,-18.432 8.192,-32.768 24.576,-41.984 0,0 28.672,-17.408 87.04,-52.224 11.264,-5.12 16.384,-13.312 16.384,-25.6 -1.024,-18.432 -11.264,-28.672 -29.696,-29.696 H 446.464 c -8.192,0 -13.312,3.072 -16.384,10.24 v 3.072 c -10.24,20.48 -24.576,30.72 -45.056,30.72 -5.12,0 -11.264,0 -17.408,-2.048 -20.48,-9.216 -30.72,-23.552 -30.72,-41.984 0,-6.144 1.024,-12.288 3.072,-18.432 z"
     fill="#000000"
     id="path1-0"
     style="stroke-width:1.024" />
</svg>
