<?xml version="1.0" encoding="UTF-8" standalone="no"?>
<svg
   viewBox="0 0 1048576 1048576"
   version="1.1"
   id="svg1"
   width="1048576"
   height="1048576"
   xmlns="http://www.w3.org/2000/svg"
   xmlns:svg="http://www.w3.org/2000/svg">
  <defs
     id="defs1" />
  <path
     d="m 512,1024 c 95.232,-1.024 181.248,-23.552 258.048,-69.632 76.8,-45.056 138.24,-106.496 184.32,-184.32 C 1000.448,693.248 1022.976,607.232 1024,512 1022.976,416.768 1000.448,330.752 954.368,253.952 909.312,177.152 847.872,115.712 770.048,69.632 693.248,23.552 607.232,1.024 512,0 416.768,1.024 330.752,23.552 253.952,69.632 177.152,114.688 115.712,176.128 69.632,253.952 23.552,330.752 1.024,416.768 0,512 c 1.024,95.232 23.552,181.248 69.632,258.048 45.056,76.8 106.496,138.24 184.32,184.32 76.8,46.08 162.816,68.608 258.048,69.632 z M 463.872,688.128 v -128 h -128 C 306.176,557.056 290.816,541.696 287.744,512 c 3.072,-29.696 18.432,-45.056 48.128,-48.128 h 128 v -128 c 3.072,-29.696 18.432,-45.056 48.128,-48.128 29.696,3.072 45.056,18.432 48.128,48.128 v 128 h 128 c 29.696,3.072 45.056,18.432 48.128,48.128 -3.072,29.696 -18.432,45.056 -48.128,48.128 h -128 v 128 c -3.072,29.696 -18.432,45.056 -48.128,48.128 -29.696,-3.072 -45.056,-18.432 -48.128,-48.128 z"
     fill="#000000"
     id="path1-7"
     style="stroke-width:1.024" />
</svg>
