<?xml version="1.0" encoding="UTF-8" standalone="no"?>
<svg
   viewBox="0 0 1048576 1048576"
   version="1.1"
   id="svg1"
   width="1048576"
   height="1048576"
   xmlns="http://www.w3.org/2000/svg"
   xmlns:svg="http://www.w3.org/2000/svg">
  <defs
     id="defs1" />
  <path
     fill="#b22334"
     d="M 1395.9878,78.76922 C 1368.6943,31.86216 1318.4787,0 1260.3077,0 H 708.92308 V 78.76922 Z M 0,787.69231 h 1417.8461 v 78.76922 H 0 Z M 708.92308,472.61537 h 708.92302 v 78.76924 H 708.92308 Z m 0,-157.53844 h 708.92302 v 78.76922 H 708.92308 Z M 0,630.15384 h 1417.8461 v 78.76924 H 0 Z M 157.53847,1024 H 1260.3077 c 58.171,0 108.3866,-31.86215 135.6801,-78.76923 H 21.858453 C 49.151992,992.13785 99.367395,1024 157.53847,1024 Z M 708.92308,157.53847 h 708.92302 v 78.76921 H 708.92308 Z"/>
  <path
     fill="#eeeeee"
     d="m 2.6781508,893.20369 c 0.6695446,3.66276 1.4178462,7.32555 2.3236892,10.90954 1.0240061,3.97785 2.2843108,7.79815 3.6234001,11.65785 3.5052089,10.20061 7.7587479,20.04677 13.1150779,29.26277 l 0.118246,0.19692 H 1395.9878 l 0.077,-0.15755 a 166.20307,166.20307 0 0 0 13.0758,-29.18402 147.69229,147.69229 0 0 0 5.9865,-22.68554 c 1.6147,-8.66461 2.7174,-17.56554 2.7174,-26.74215 H 0 c 0,9.17661 1.1027631,18.03816 2.6781508,26.74215 z M 0,708.92308 h 1417.8461 v 78.76923 H 0 Z M 0,551.38461 v 78.76923 H 1417.8461 V 551.38461 H 708.92308 Z M 708.92308,393.84615 h 708.92302 v 78.76922 H 708.92308 Z m 0,-157.53847 h 708.92302 v 78.76925 H 708.92308 Z M 0,157.53847 Z M 21.858453,78.76922 21.740207,78.966167 Z M 5.0412185,119.88676 c 0.9846276,-4.01721 2.3630955,-7.83753 3.6234,-11.69723 a 148.87385,148.87385 0 0 0 -3.6234,11.69723 z M 708.92308,157.53847 h 708.92302 c 0,-9.17662 -1.1027,-18.07754 -2.7174,-26.78154 a 142.02093,142.02093 0 0 0 -6.0259,-22.68554 165.80923,165.80923 0 0 0 -13.115,-29.30217 H 708.92308 Z"/>
  <path
     fill="#3c3b6e"
     d="M 708.92308,0 H 157.53847 A 157.53847,157.53847 0 0 0 0,157.53847 v 393.84614 h 708.92308 z"/>
  <path
     fill="#eeeeee"
     d="m 78.808626,107.36247 24.339684,17.68367 -9.294759,28.55387 24.300309,-17.64432 24.33968,17.64432 -9.29478,-28.55387 24.33971,-17.68367 h -30.08986 l -9.29475,-28.59325 -9.25541,28.59325 z m 78.769224,78.76922 24.33968,17.6837 -9.29475,28.55384 24.3003,-17.64433 24.33968,17.64433 -9.29476,-28.55384 24.33968,-17.6837 h -30.08985 l -9.29475,-28.59322 -9.25539,28.59322 z m 157.53846,0 24.33968,17.6837 -9.29475,28.55384 24.30031,-17.64433 24.33968,17.64433 -9.29477,-28.55384 24.33969,-17.6837 H 363.7563 l -9.29475,-28.59322 -9.25539,28.59322 z m 157.53847,0 24.33968,17.6837 -9.29476,28.55384 24.30031,-17.64433 24.33969,17.64433 -9.29478,-28.55384 24.33969,-17.6837 h -30.08984 l -9.29476,-28.59322 -9.25541,28.59322 z m -315.07693,157.53846 24.33968,17.6837 -9.29475,28.55384 24.3003,-17.64432 24.33968,17.64432 -9.29476,-28.55384 24.33968,-17.6837 h -30.08985 l -9.29475,-28.59322 -9.25539,28.59322 z m 157.53846,0 24.33968,17.6837 -9.29475,28.55384 24.30031,-17.64432 24.33968,17.64432 -9.29477,-28.55384 24.33969,-17.6837 H 363.7563 l -9.29475,-28.59322 -9.25539,28.59322 z m 157.53847,0 24.33968,17.6837 -9.29476,28.55384 24.30031,-17.64432 24.33969,17.64432 -9.29478,-28.55384 24.33969,-17.6837 h -30.08984 l -9.29476,-28.59322 -9.25541,28.59322 z m -236.30772,-236.30768 24.33971,17.68367 -9.29478,28.55387 24.3003,-17.64432 24.33971,17.64432 -9.29478,-28.55387 24.33971,-17.68367 h -30.08984 l -9.2948,-28.59325 -9.25537,28.59325 z m 157.53846,0 24.33971,17.68367 -9.29477,28.55387 24.3003,-17.64432 24.33971,17.64432 -9.29478,-28.55387 24.33968,-17.68367 h -30.08983 l -9.29478,-28.59325 -9.25537,28.59325 z m 157.53847,0 24.33968,17.68367 -9.29475,28.55387 24.30031,-17.64432 24.33968,17.64432 -9.29475,-28.55387 24.33968,-17.68367 h -30.08985 l -9.29476,-28.59325 -9.25538,28.59325 z m -472.615364,157.53847 24.339684,17.68366 -9.294759,28.55385 24.300309,-17.64429 24.33968,17.64429 -9.29478,-28.55385 24.33971,-17.68366 h -30.08986 l -9.29475,-28.59326 -9.25541,28.59326 z m 172.583364,46.23751 24.3003,-17.64429 24.33971,17.64429 -9.29478,-28.55385 24.33971,-17.68366 h -30.08984 l -9.2948,-28.59326 -9.25537,28.59326 h -30.08986 l 24.33971,17.68366 z m 142.49353,-46.23751 24.33971,17.68366 -9.29477,28.55385 24.3003,-17.64429 24.33971,17.64429 -9.29478,-28.55385 24.33968,-17.68366 h -30.08983 l -9.29478,-28.59326 -9.25537,28.59326 z m 157.53847,0 24.33968,17.68366 -9.29475,28.55385 24.30031,-17.64429 24.33968,17.64429 -9.29475,-28.55385 24.33968,-17.68366 h -30.08985 l -9.29476,-28.59326 -9.25538,28.59326 z m -472.615364,157.53844 24.339684,17.68369 -9.294759,28.55385 24.300309,-17.6443 24.33968,17.6443 -9.29478,-28.55385 24.33971,-17.68369 h -30.08986 l -9.29475,-28.59323 -9.25541,28.59323 z m 172.583364,46.23754 24.3003,-17.6443 24.33971,17.6443 -9.29478,-28.55385 24.33971,-17.68369 h -30.08984 l -9.2948,-28.59323 -9.25537,28.59323 h -30.08986 l 24.33971,17.68369 z m 142.49353,-46.23754 24.33971,17.68369 -9.29477,28.55385 24.3003,-17.6443 24.33971,17.6443 -9.29478,-28.55385 24.33968,-17.68369 h -30.08983 l -9.29478,-28.59323 -9.25537,28.59323 z m 157.53847,0 24.33968,17.68369 -9.29475,28.55385 24.30031,-17.6443 24.33968,17.6443 -9.29475,-28.55385 24.33968,-17.68369 h -30.08985 l -9.29476,-28.59323 -9.25538,28.59323 z"/>
</svg>
