<?xml version="1.0" encoding="UTF-8" standalone="no"?>
<svg
   viewBox="0 0 1048576 1048576"
   version="1.1"
   id="svg1"
   width="1048576"
   height="1048576"
   xmlns="http://www.w3.org/2000/svg"
   xmlns:svg="http://www.w3.org/2000/svg">
  <defs
     id="defs1" />
  <path
     fill="#de2910"
     d="m 1417.7916,866.4479 c 0,87.017 -70.5351,157.5521 -157.5521,157.5521 H 157.55209 C 70.53513,1024 0,953.4649 0,866.4479 V 157.55209 C 0,70.53513 70.53513,0 157.55209,0 H 1260.2395 c 87.017,0 157.5521,70.53513 157.5521,157.55209 z"/>
  <path
     fill="#ffde02"
     d="m 438.62928,156.66597 29.06473,14.0007 23.21634,-22.33022 -4.4306,31.90031 28.35583,15.24126 -31.72308,5.67117 -5.67117,31.72308 -15.24126,-28.35583 -31.90031,4.4306 22.33022,-23.21634 z m 183.60402,115.72725 -14.00069,28.8875 22.33021,23.21634 -31.90031,-4.4306 -15.24126,28.35583 -5.67116,-31.72309 -31.72309,-5.67116 28.35583,-15.24126 -4.4306,-31.90031 23.21634,22.33021 28.8875,-14.00069 z m -37.57148,148.86812 10.63344,30.48252 32.25476,0.70889 -25.69748,19.49464 9.39287,30.83696 -26.40637,-18.43129 -26.40636,18.43129 9.21564,-30.83696 -25.69747,-19.49464 32.25476,-0.70889 10.63343,-30.48252 z m -146.03254,129.19626 29.06473,14.00069 23.21634,-22.33022 -4.4306,31.90031 28.35583,15.24126 -31.72308,5.67117 -5.67117,31.72309 -15.24126,-28.35583 -31.90031,4.43059 22.33022,-23.21633 z m -162.86881,-315.99031 36.50814,105.27103 111.29664,2.30391 -88.7892,67.3451 32.25476,106.5116 -91.44756,-63.6234 -91.44756,63.6234 32.25476,-106.5116 -88.7892,-67.3451 111.29664,-2.30391 36.50813,-105.27103 z"/>
</svg>
